M48
INCH
T01C.011811
T02C.035433
T03C.03937
T04C.066929
;LEADER: 12 
;HEADER: 
;CODE  : ASCII 
;FILE  : DATAHSS-1-2.drl for  ... layers TOP and BOTTOM
;DESIGN: DATAHSS.brd
;T01 Holesize 1. = 11.811024 Tolerance = +0.000000/-0.000000 PLATED MILS Quantity = 90
;T02 Holesize 2. = 35.433071 Tolerance = +0.000000/-0.000000 PLATED MILS Quantity = 5
;T03 Holesize 3. = 39.370079 Tolerance = +0.000000/-0.000000 PLATED MILS Quantity = 25
;T04 Holesize 4. = 66.929134 Tolerance = +0.000000/-0.000000 PLATED MILS Quantity = 2
%
G90
T01
X006488Y006343
X006774Y005937
X006992Y005713
X006772Y006594
X005558Y006596
X003945Y006618
X003199Y005331
X003196Y003987
X006681Y005469
X008763Y014776
X007063Y013876
X009213Y013761
X007193Y000579
X003906Y003610
X005972Y002161
X003480Y002433
X005453Y002161
X002526Y003987
X002526Y005794
X008013Y007544
X008559Y001256
X008013Y003126
X007697Y005276
X008013Y005276
X008013Y007126
X008006Y004826
X007663Y004826
X008563Y000551
X008013Y008376
X006772Y008425
X005866Y008445
X005433Y008445
X004963Y008061
X009409Y003126
X005263Y005226
X002526Y004431
X005394Y001051
X007811Y001205
X002529Y004877
X002530Y005331
X000787Y007087
X000787Y007677
X008763Y013091
X007863Y012802
X009213Y013091
X008813Y011561
X006294Y011463
X006313Y009626
X004809Y013923
X004213Y013923
X004917Y011426
X003613Y012026
X006713Y014803
X006991Y012033
X008363Y011561
X006313Y011126
X005263Y014626
X003463Y014626
X006524Y000579
X008134Y000886
X007362Y008110
X006299Y008445
X006813Y004411
X007363Y006926
X007313Y004826
X007028Y004826
X007813Y003607
X007363Y007791
X005866Y007776
X003196Y005794
X007807Y002437
X004413Y002437
X004228Y000622
X004228Y001673
X009961Y007205
X005165Y006969
X007663Y006574
X005362Y006803
X003858Y002630
X004967Y006513
X006563Y004726
X006413Y003244
X004063Y002386
X005650Y003764
X006228Y001280
X006882Y001280
X006224Y001531
X006882Y001870
X009055Y006138
X004770Y006737
T02
X001772Y012638
X001772Y014528
X002323Y010252
R02Y-001000
T03
X008563Y007744
R05Y-001000
X000787Y006067
R03Y-001000
X004488Y010539
X004488Y009539
X014828Y014044
R04X-000984
X010799Y011953
X015799Y011953
X015799Y001051
R05X-001000
T04
X000591Y012165
X000591Y015000
M30
