G04 ================== begin FILE IDENTIFICATION RECORD ==================*
G04 Layout Name:  C:/Users/gino/Desktop/DATAHSS/datahss_project/allegro/DATAHSS.brd*
G04 Film Name:    ETCH_BOTTOM*
G04 File Format:  Gerber RS274X*
G04 File Origin:  Cadence Allegro 17.2-P019*
G04 Origin Date:  Mon Jan 29 10:53:14 2018*
G04 *
G04 Layer:  VIA CLASS/BOTTOM*
G04 Layer:  PIN/BOTTOM*
G04 Layer:  ETCH/BOTTOM*
G04 *
G04 Offset:    (0.0000 0.0000)*
G04 Mirror:    No*
G04 Mode:      Positive*
G04 Rotation:  0*
G04 FullContactRelief:  No*
G04 UndefLineWidth:     0.0000*
G04 ================== end FILE IDENTIFICATION RECORD ====================*
%FSLAX25Y25*MOIN*%
%IR0*IPPOS*OFA0.00000B0.00000*MIA0B0*SFA1.00000B1.00000*%
%ADD11C,.017717*%
%ADD10C,.055118*%
%ADD12C,.000004*%
%ADD13C,.008661*%
%ADD14C,.006299*%
%ADD15C,.006693*%
%ADD17C,.030331*%
%ADD16C,.067732*%
%ADD19C,.082945*%
%ADD18C,.051449*%
G75*
%LPD*%
G75*
G36*
G01X394Y1575D02*
X0Y1969D01*
Y72047D01*
X36220D01*
X52362Y88189D01*
X87795D01*
X96063Y96457D01*
Y143070D01*
X96185Y143192D01*
X105948D01*
G02X106261Y142543I0J-400D01*
G03X111565I2652J-2106D01*
G02X111878Y143192I313J249D01*
G01X115791D01*
G02X116104Y142543I0J-400D01*
G03X121408I2652J-2106D01*
G02X121721Y143192I313J249D01*
G01X124339D01*
X125145Y142385D01*
G03X125163Y142368I744J761D01*
G01X125573Y141958D01*
G03X127201Y143522I3026J-1521D01*
G01X127075Y143465D01*
X126650Y143890D01*
G03X126633Y143907I-744J-761D01*
G01X125220Y145320D01*
X96063D01*
Y163780D01*
X164567D01*
Y3150D01*
X162992Y1575D01*
X394D01*
G37*
G36*
G01X93190Y138687D02*
Y140196D01*
X94593Y141599D01*
G02X95276Y141317I283J-283D01*
G01Y97244D01*
X87008Y88976D01*
X51575D01*
X38189Y75591D01*
X0D01*
Y163780D01*
X95276D01*
Y145291D01*
X91062Y141078D01*
Y138687D01*
G03X93190I1064J-1081D01*
G37*
%LPC*%
G75*
G36*
G01X72045Y47196D02*
X71361D01*
G02Y49324I-1081J1064D01*
G01X72045D01*
G02Y47196I1081J-1064D01*
G37*
G36*
G01X76990Y23306D02*
X45215D01*
G02Y25434I-1081J1064D01*
G01X76990D01*
G02X77007Y25451I1081J-1064D01*
G01Y27015D01*
X78496Y28505D01*
X82415D01*
G02Y26377I3215J-1064D01*
G01X79378D01*
X79135Y26134D01*
Y25451D01*
G02X76990Y23306I-1064J-1081D01*
G37*
G36*
G01X43249Y15563D02*
Y7390D01*
G02X41318I-965J-1170D01*
G01Y15563D01*
G02X43249I965J1170D01*
G37*
G36*
G01X66300Y7552D02*
Y6868D01*
G02X64172I-1064J-1081D01*
G01Y8433D01*
X65662Y9922D01*
X80258D01*
G02Y7794I1081J-1064D01*
G01X66543D01*
X66300Y7552D01*
G37*
G36*
G01X65099Y33611D02*
G02X63169I-965J-1170D01*
G01Y44258D01*
X64661Y45750D01*
Y46087D01*
X64596Y46146D01*
G02X66591Y46090I1030J1113D01*
G01Y45650D01*
G03X67228Y45328I400J0D01*
G02X66611Y44026I898J-1222D01*
G03X65929Y44289I-399J-21D01*
G01X65099Y43458D01*
Y33611D01*
G37*
G36*
G01X59756Y76704D02*
X59699Y76651D01*
G02X59676Y78883I-1038J1106D01*
G01X59734Y78831D01*
X72531Y78966D01*
X72588Y79019D01*
G02X72783Y79174I1040J-1104D01*
G03X72782Y79840I-222J332D01*
G02X72541Y80039I841J1262D01*
G01X65898D01*
X63006Y82930D01*
X62928Y82933D01*
G02X64507Y84512I64J1515D01*
G01X64511Y84434D01*
X66779Y82166D01*
X72541D01*
G02X74465Y79842I1081J-1064D01*
G03X74466Y79176I222J-332D01*
G02X72611Y76787I-840J-1263D01*
G01X72554Y76839D01*
X59756Y76704D01*
G37*
G36*
G01X41595Y25028D02*
G02X39174Y24282I-965J-1170D01*
G03X38746Y24792I-384J112D01*
G02X37617Y27469I-164J1508D01*
G01Y33413D01*
X39940Y35736D01*
Y36469D01*
X37617Y38792D01*
Y56462D01*
G03X36935Y56745I-400J0D01*
G01X33511Y53321D01*
X33507Y53243D01*
G02X33056Y52226I-1515J64D01*
G01Y43386D01*
X33020Y43351D01*
Y40955D01*
G02X30893I-1064J-1081D01*
G01Y44232D01*
X30928Y44267D01*
Y52226D01*
G02X31928Y54822I1064J1081D01*
G01X32006Y54826D01*
X38385Y61204D01*
Y65100D01*
G02X40513I1064J1081D01*
G01Y62181D01*
G03X41195Y61899I400J0D01*
G01X45392Y66095D01*
X46002D01*
G03X46357Y66679I0J400D01*
G02X48874Y68339I1348J695D01*
G01X49987D01*
G03X50335Y68937I0J400D01*
G02X50199Y70116I1319J749D01*
G03X49816Y70629I-383J113D01*
G01X39378D01*
X33020Y64272D01*
Y59018D01*
G02X30893I-1064J-1081D01*
G01Y65153D01*
X38497Y72757D01*
X70993D01*
X73073Y70677D01*
X73188Y70712D01*
G02X74935Y70026I438J-1452D01*
G03X75563Y69945I345J202D01*
G01X75953Y70335D01*
X80852D01*
X83530Y73013D01*
X98437D01*
G02Y71082I1170J-965D01*
G01X87588D01*
G03X87381Y70339I0J-400D01*
G02X84017Y64463I-1751J-2899D01*
G01X82580Y63026D01*
G03X82863Y62343I283J-283D01*
G01X89381D01*
G02Y60413I1170J-965D01*
G01X88409D01*
G03X88116Y59741I0J-400D01*
G02X86015Y54076I-2486J-2300D01*
G03X85778Y53396I46J-397D01*
G01X86595Y52579D01*
Y50690D01*
X86730Y50644D01*
G02X83524Y44789I-1100J-3203D01*
G03X82875Y44476I-249J-313D01*
G01Y41561D01*
X84015Y40421D01*
X84143Y40484D01*
G02X82587Y38928I1487J-3043D01*
G01X82650Y39056D01*
X80944Y40761D01*
Y49382D01*
X81043Y49481D01*
Y53564D01*
X80887Y53720D01*
X67981D01*
G02Y55650I-1170J965D01*
G01X68335D01*
G03X68666Y56275I0J400D01*
G02X68431Y57407I1255J851D01*
G03X67976Y57876I-393J74D01*
G02X66310Y59880I-236J1498D01*
G03X65933Y60413I-377J133D01*
G01X62867D01*
X60584Y62696D01*
X54009D01*
X51804Y64902D01*
G03X51135Y64726I-283J-283D01*
G02X48504Y64165I-1462J404D01*
G01X46192D01*
X39548Y57521D01*
Y39592D01*
X41871Y37269D01*
Y34936D01*
X39548Y32613D01*
Y32272D01*
G03X40231Y31990I400J0D01*
G01X46844Y38603D01*
X55326D01*
G02Y36672I1170J-965D01*
G01X47644D01*
X41595Y30624D01*
Y25028D01*
G37*
G36*
G01X154614Y5629D02*
X143891D01*
X141810Y7709D01*
Y12000D01*
X140855Y12955D01*
X140591Y12691D01*
X140695Y12552D01*
G02X140032Y13215I-2703J-2040D01*
G01X140171Y13110D01*
X140435Y13375D01*
X139480Y14330D01*
X73807D01*
X71208Y11731D01*
X69900D01*
G02X67649Y11830I-1081J1064D01*
G01X63453D01*
G02X61125Y13774I-1170J965D01*
G03X61117Y14300I-305J258D01*
G02X63414Y16280I1127J1014D01*
G01X65033D01*
X67307Y18554D01*
X67304Y18641D01*
G02X69900Y19765I1515J59D01*
G01X140244D01*
X146469Y13540D01*
X146595Y13597D01*
G02X150644Y8406I1397J-3085D01*
G03X150957Y7757I313J-249D01*
G01X153733D01*
X154964Y8989D01*
X154907Y9115D01*
G02X156595Y7427I3085J1397D01*
G01X156469Y7484D01*
X154614Y5629D01*
G37*
G36*
G01X25620Y91574D02*
G02Y93465I-2392J946D01*
G01X29871D01*
X37611Y101206D01*
X49234D01*
X60234Y112206D01*
X61941D01*
G02Y110314I1185J-946D01*
G01X61018D01*
X50018Y99314D01*
X38395D01*
X30655Y91574D01*
X25620D01*
G37*
G36*
G01X70640Y140278D02*
X79185Y148824D01*
X86545D01*
G02Y146696I1081J-1064D01*
G01X80067D01*
X72144Y138774D01*
X72141Y138696D01*
G02X70562Y140275I-1515J64D01*
G01X70640Y140278D01*
G37*
G36*
G01X51545Y145196D02*
X35707D01*
G02Y147324I-1081J1064D01*
G01X51545D01*
G02Y145196I1081J-1064D01*
G37*
G36*
G01X24018Y104968D02*
X24135Y104930D01*
X25662Y106457D01*
X41667D01*
G02Y104330I3215J-1064D01*
G01X26543D01*
X25639Y103426D01*
X25676Y103309D01*
G02X24018Y104968I-2448J-790D01*
G37*
G54D17*
X78126Y36075D03*
G54D16*
X7874Y30669D03*
Y40669D03*
Y50669D03*
Y60669D03*
X85630Y77441D03*
X107992Y10512D03*
Y119528D03*
X117992Y10512D03*
X127992D03*
X138441Y140437D03*
X157992Y119528D03*
X148283Y140437D03*
X44882Y95394D03*
G54D19*
X5906Y150000D03*
Y121654D03*
G54D18*
X17717Y145276D03*
Y126378D03*
X23228Y82520D03*
%LPD*%
G75*
G36*
G01X63453Y13761D02*
G03X63296Y13924I-1169J-966D01*
G02X63291Y14218I134J149D01*
G03X63414Y14350I-1047J1097D01*
G01X65833D01*
X68672Y17189D01*
X68759Y17185D01*
G03X69900Y17637I59J1515D01*
G01X139363D01*
X139859Y17140D01*
G02X139576Y16457I-283J-283D01*
G01X72926D01*
X70327Y13859D01*
X69903D01*
X69845Y13912D01*
G03X67649Y13761I-1026J-1117D01*
G01X63453D01*
G37*
G36*
G01X78289Y64391D02*
G02X77942Y64989I0J400D01*
G03X76584Y67260I-1316J754D01*
G02X76291Y67943I-11J400D01*
G01X76753Y68405D01*
X81658D01*
G02X82293Y68017I241J-319D01*
G03X82652Y65828I3337J-576D01*
G01X81214Y64391D01*
X78289D01*
G37*
G36*
G01X81585Y57589D02*
X81083Y58091D01*
X71091D01*
G03X70722Y58414I-1169J-966D01*
G02X70651Y59036I211J340D01*
G01X70721Y59107D01*
X82061D01*
G02X82438Y58573I0J-400D01*
G03X82265Y57826I3192J-1132D01*
G02X81585Y57589I-397J46D01*
G37*
G54D10*
X7874Y30669D03*
Y40669D03*
Y50669D03*
Y60669D03*
X44882Y95394D03*
Y105394D03*
X85630Y27441D03*
Y37441D03*
Y47441D03*
Y57441D03*
Y67441D03*
Y77441D03*
X107992Y10512D03*
Y119528D03*
X108913Y140437D03*
X117992Y10512D03*
X127992D03*
X118756Y140437D03*
X128598D03*
X137992Y10512D03*
X138441Y140437D03*
X147992Y10512D03*
X157992D03*
Y119528D03*
X148283Y140437D03*
G54D11*
X7874Y76772D03*
Y70866D03*
X25264Y39874D03*
X25299Y53307D03*
X25287Y48772D03*
X25264Y44307D03*
Y57937D03*
X40630Y23858D03*
X34803Y24331D03*
X38583Y26299D03*
X39055Y36102D03*
X31957Y39874D03*
X31992Y53307D03*
X31957Y57937D03*
X39449Y66181D03*
X36126Y120260D03*
X34626Y146260D03*
X42283Y6220D03*
X53937Y10512D03*
X42283Y16732D03*
X44134Y24370D03*
X54528Y21614D03*
X52626Y52260D03*
X47705Y67374D03*
X49673Y65130D03*
X53622Y68031D03*
X51654Y69685D03*
X55579Y65957D03*
X49626Y80606D03*
X54331Y84448D03*
X49173Y114264D03*
X42126Y139229D03*
X48095D03*
X52626Y146260D03*
X65236Y5787D03*
X68819Y18701D03*
X62244Y15315D03*
X68819Y12795D03*
X62283D03*
X59724Y21614D03*
X56496Y37638D03*
X64134Y32441D03*
X65626Y47260D03*
X70280Y48260D03*
X68126Y44106D03*
X66811Y54685D03*
X67717Y65945D03*
X69921Y57126D03*
X67740Y59374D03*
X64882Y63425D03*
X58661Y77756D03*
X62992Y84448D03*
X58661D03*
X67717Y84252D03*
X63126Y96260D03*
Y111260D03*
X62941Y114630D03*
X69909Y120327D03*
X67126Y148031D03*
X81339Y8858D03*
X71929Y5787D03*
X78071Y24370D03*
X78110Y12051D03*
X78126Y36075D03*
X80126Y31260D03*
X73126Y48260D03*
X76626D03*
X80059D03*
X80126Y52760D03*
X76972D03*
X76626Y65744D03*
X73626Y69260D03*
Y77914D03*
X73622Y81102D03*
X80126Y83760D03*
Y71260D03*
Y75445D03*
X83626Y115606D03*
X78626Y128020D03*
X70626Y138760D03*
X85630Y5512D03*
X85591Y12559D03*
X94094Y31260D03*
X90551Y61378D03*
X99606Y72047D03*
X88126Y115606D03*
X92126Y130914D03*
X87626D03*
X92126Y137606D03*
X87626Y147760D03*
G54D12*
X5906Y121654D03*
Y150000D03*
X23228Y82520D03*
Y92520D03*
Y102520D03*
X17717Y126378D03*
Y145276D03*
G54D13*
G01X34803Y24331D02*
X32205D01*
X25264Y31272D01*
Y39874D01*
G01D02*
Y44307D01*
G01D02*
Y57937D01*
G01D02*
Y60343D01*
X38110Y73189D01*
X71173D01*
X73102Y71260D01*
X80126D01*
G01X23228Y102520D02*
X26102Y105394D01*
X44882D01*
G01X34803Y24331D02*
X37520Y21614D01*
X54528D01*
G01X39055Y36102D02*
X34803Y31850D01*
Y24331D01*
G01X31992Y53307D02*
Y43827D01*
X31957Y43791D01*
Y39874D01*
G01X39449Y66181D02*
Y60764D01*
X31992Y53307D01*
G01X31957Y57937D02*
Y64712D01*
X38937Y71693D01*
X70553D01*
X72986Y69260D01*
X73626D01*
G01X49173Y114264D02*
X47224D01*
X47220Y114260D01*
X36992D01*
X36126Y115126D01*
Y120260D01*
G01X34626Y146260D02*
X52626D01*
G01X44134Y24370D02*
X78071D01*
G01X54528Y21614D02*
X59724D01*
G01X54331Y84448D02*
X58661D01*
G01X49626Y80606D02*
X51004Y81984D01*
X51504D01*
X54331Y84448D01*
G01X48469Y95394D02*
X60311D01*
G01X44882D02*
X48469D01*
G01X49173Y114264D02*
X51122D01*
X51126Y114260D01*
X60622D01*
X60992Y114630D01*
X62941D01*
G01X48095Y139229D02*
X42126D01*
G01X67126Y148031D02*
X58717Y139229D01*
X48095D01*
G01X81339Y8858D02*
X66102D01*
X65236Y7992D01*
Y5787D01*
G01X68819Y18701D02*
X139803D01*
X147992Y10512D01*
G01X68819Y12795D02*
X70768D01*
X73366Y15394D01*
X139921D01*
X142874Y12441D01*
Y8150D01*
X144331Y6693D01*
X154173D01*
X157992Y10512D01*
G01X58661Y77756D02*
X73626Y77914D01*
G01X73622Y81102D02*
X66338D01*
X62992Y84448D01*
G01X67717Y84252D02*
X65354Y86614D01*
X60827D01*
X58661Y84448D01*
G01X60311Y95394D02*
X61177Y96260D01*
X63126D01*
G01X69909Y120327D02*
X63807D01*
X62941Y119461D01*
Y114630D01*
G01X83626Y115606D02*
X74709D01*
X73732Y114630D01*
X62941D01*
G01X71929Y5787D02*
X83406D01*
X83681Y5512D01*
X85630D01*
G01Y27441D02*
X78937D01*
X78071Y26575D01*
Y24370D01*
G01X80126Y31260D02*
X94094D01*
G01X70280Y48260D02*
X73126D01*
G01X80059D02*
X76626D01*
G01X76972Y52760D02*
X80126D01*
G01X87626Y130914D02*
X84732Y128020D01*
X78626D01*
G01X70626Y138760D02*
X79626Y147760D01*
X87626D01*
G01X125292Y7811D02*
X125247D01*
X122948Y5512D01*
X85630D01*
G01X128598Y140437D02*
X125898Y143137D01*
X124779Y144256D01*
X95745D01*
X92126Y140637D01*
Y137606D01*
G01X127992Y10512D02*
X125292Y7811D01*
G54D14*
G01X23228Y92520D02*
X30263D01*
X38003Y100260D01*
X49626D01*
X60626Y111260D01*
X63126D01*
G01X52626Y52260D02*
X74641D01*
X75141Y52760D01*
X76972D01*
G01X44882Y91807D02*
Y95394D01*
G01D02*
Y98980D01*
G01X41295Y95394D02*
X44882D01*
G01X82043Y77441D02*
X85630D01*
G01Y73854D02*
Y77441D01*
G01D02*
Y81028D01*
G01Y77441D02*
X89217D01*
G01X127992Y6925D02*
Y10512D01*
G01X124406D02*
X127992D01*
G01D02*
X131579D01*
G01X148283Y136850D02*
Y140437D01*
G01D02*
Y144024D01*
G01X144697Y140437D02*
X148283D01*
G01D02*
X151870D01*
G54D15*
G01X38583Y26299D02*
Y33013D01*
X40906Y35336D01*
Y36869D01*
X38583Y39192D01*
Y57921D01*
X45792Y65130D01*
X49673D01*
G01X42283Y6220D02*
Y16732D01*
G01X71929Y5787D02*
X68661Y2520D01*
X56378D01*
X53937Y4961D01*
Y10512D01*
G01X56496Y37638D02*
X47244D01*
X40630Y31024D01*
Y23858D01*
G01X90551Y61378D02*
X63267D01*
X60984Y63661D01*
X54409D01*
X50697Y67374D01*
X47705D01*
G01X53622Y68031D02*
X70275D01*
X72563Y65744D01*
X76626D01*
G01X99606Y72047D02*
X83930D01*
X81252Y69370D01*
X76353D01*
X74393Y67409D01*
X72859D01*
X70072Y70197D01*
X52165D01*
X51654Y69685D01*
G01X68819Y18701D02*
X65433Y15315D01*
X62244D01*
G01X68819Y12795D02*
X62283D01*
G01X64134Y32441D02*
Y43858D01*
X65626Y45350D01*
Y47260D01*
G01X85630Y37441D02*
X81909Y41161D01*
Y48982D01*
X82008Y49081D01*
Y53964D01*
X81287Y54685D01*
X66811D01*
G01X55579Y65957D02*
X65854D01*
X65866Y65945D01*
X67717D01*
G01X69921Y57126D02*
X80683D01*
X85630Y52179D01*
Y47441D01*
G01X67740Y59374D02*
X69623D01*
X70321Y60072D01*
X82999D01*
X85630Y57441D01*
G01X64882Y63425D02*
X81614D01*
X85630Y67441D01*
G01X80126Y83760D02*
X70059D01*
X69567Y84252D01*
X67717D01*
G01X85591Y12559D02*
X80862D01*
X80354Y12051D01*
X78110D01*
M02*
