G04 ================== begin FILE IDENTIFICATION RECORD ==================*
G04 Layout Name:  C:/Users/gino/Desktop/DATAHSS/datahss_project/allegro/DATAHSS.brd*
G04 Film Name:    ETCH_TOP*
G04 File Format:  Gerber RS274X*
G04 File Origin:  Cadence Allegro 17.2-P019*
G04 Origin Date:  Mon Jan 29 10:53:14 2018*
G04 *
G04 Layer:  VIA CLASS/TOP*
G04 Layer:  PIN/TOP*
G04 Layer:  ETCH/TOP*
G04 *
G04 Offset:    (0.0000 0.0000)*
G04 Mirror:    No*
G04 Mode:      Positive*
G04 Rotation:  0*
G04 FullContactRelief:  No*
G04 UndefLineWidth:     0.0000*
G04 ================== end FILE IDENTIFICATION RECORD ====================*
%FSLAX25Y25*MOIN*%
%IR0*IPPOS*OFA0.00000B0.00000*MIA0B0*SFA1.00000B1.00000*%
%ADD18R,.066929X.015748*%
%ADD11C,.017717*%
%ADD14R,.019685X.019685*%
%ADD20R,.047244X.094488*%
%ADD13R,.059055X.059055*%
%ADD27R,.01378X.011811*%
%ADD25R,.098425X.070866*%
%ADD29R,.020866X.008661*%
%ADD28R,.011811X.01378*%
%ADD12R,.106299X.102362*%
%ADD30R,.008661X.020866*%
%ADD17C,.051181*%
%ADD10C,.055118*%
%ADD16C,.059055*%
%ADD19R,.035433X.027559*%
%ADD15R,.027559X.035433*%
%ADD26R,.010236X.029921*%
%ADD23R,.033465X.011024*%
%ADD24R,.011024X.033465*%
%ADD22R,.139764X.139764*%
%ADD21R,.03228X.012598*%
%ADD31C,.008661*%
%ADD32C,.019685*%
%ADD33C,.009843*%
%ADD34C,.027559*%
%ADD35C,.006299*%
%ADD36C,.006693*%
%ADD37C,.067732*%
%ADD38C,.071669*%
G75*
%LPD*%
G75*
G36*
G01X394Y1575D02*
X0Y1969D01*
Y72047D01*
X36220D01*
X52362Y88189D01*
X72408D01*
Y86422D01*
X72562Y86268D01*
Y82187D01*
G03Y80018I1060J-1085D01*
G01Y78994D01*
G03Y76833I1064J-1081D01*
G01Y70341D01*
G03X72200Y68742I1064J-1081D01*
G01X72244Y68622D01*
X72062Y68441D01*
Y55562D01*
G02X71660Y55162I-400J0D01*
G01X68902D01*
G03X68684Y55124I0J-631D01*
G02X68184Y55329I-138J375D01*
G03X68066Y55536I-1373J-644D01*
G02X68397Y56161I331J224D01*
G01X68752D01*
G03X69686Y58624I1170J965D01*
G02X69230Y59093I-62J395D01*
G03X66570Y60339I-1490J281D01*
G01X65828D01*
Y62240D01*
G03X63936I-946J1185D01*
G01Y60939D01*
X63328Y60331D01*
X60698D01*
Y62823D01*
X62536Y64661D01*
Y71357D01*
X62850D01*
G03X63481Y71988I0J631D01*
G01Y75531D01*
Y75747D01*
X64764D01*
G03X65212Y75934I0J631D01*
G02X65496I142J-141D01*
G03X65945Y75747I448J444D01*
G01X66653D01*
Y67026D01*
G03X68780I1064J-1081D01*
G01Y75747D01*
X69488D01*
G03X70119Y76378I0J631D01*
G01Y79134D01*
G03X69488Y79765I-631J0D01*
G01X65945D01*
G03X65496Y79578I0J-631D01*
G02X65212I-142J141D01*
G03X64764Y79765I-448J-444D01*
G01X62156D01*
G02X61873Y80447I0J400D01*
G01X63866Y82440D01*
X64764D01*
G03X65212Y82627I0J631D01*
G02X65496I142J-141D01*
G03X65945Y82440I448J444D01*
G01X69488D01*
G03X70119Y83071I0J631D01*
G01Y85827D01*
G03X69488Y86457I-631J0D01*
G01X65945D01*
G03X65496Y86270I0J-631D01*
G02X65212I-142J141D01*
G03X64764Y86457I-448J-444D01*
G01X61220D01*
G03X60827Y86320I0J-631D01*
G03X60433Y86457I-394J-493D01*
G01X56890D01*
G03X56496Y86320I0J-631D01*
G03X56102Y86457I-394J-493D01*
G01X52559D01*
G03X51928Y85827I0J-631D01*
G01Y83071D01*
G03X51930Y83031I631J-1D01*
G02X51479Y82610I-399J-25D01*
G03X51398Y82615I-80J-626D01*
G01X47854D01*
G03X47224Y81984I0J-631D01*
G01Y79228D01*
G03X47854Y78598I631J0D01*
G01X51398D01*
G03X51478Y78603I0J631D01*
G02X51928Y78206I51J-397D01*
G01Y76378D01*
G03X51930Y76339I631J-1D01*
G02X51479Y75917I-399J-25D01*
G03X51398Y75922I-80J-626D01*
G01X47854D01*
G03X47224Y75291I0J-631D01*
G01Y74977D01*
X43670D01*
X38385Y69693D01*
Y67262D01*
G03X40513I1064J-1081D01*
G01Y68811D01*
X44551Y72850D01*
X47224D01*
Y72535D01*
G03X47854Y71905I631J0D01*
G01X51398D01*
G03X52028Y72506I0J631D01*
G01X52037Y72696D01*
X52771D01*
Y71988D01*
G03X53402Y71357I631J0D01*
G01X56157D01*
G03X56253Y71365I1J631D01*
G01X56268Y71367D01*
X56483D01*
Y67806D01*
G02X55978Y67420I-400J0D01*
G03X55542Y67473I-400J-1463D01*
G02X55133Y67906I-10J400D01*
G03X53567Y69547I-1511J125D01*
G02X53156Y69892I-14J400D01*
G03X50624Y68572I-1502J-207D01*
G01X50688Y68512D01*
Y68235D01*
X50677Y68223D01*
Y66949D01*
G02X50151Y66569I-400J0D01*
G03X49609Y66645I-478J-1439D01*
G02X49199Y67113I-17J400D01*
G03X46739Y66204I-1494J261D01*
G01Y64328D01*
X45185D01*
G03X44554Y63697I0J-631D01*
G01Y62989D01*
X38769D01*
X36226Y65532D01*
X35753D01*
X35749Y65536D01*
X21472D01*
X21468Y65532D01*
X19285D01*
X15387Y61635D01*
X11123D01*
X11077Y61770D01*
G03Y59569I-3203J-1100D01*
G01X11123Y59704D01*
X14578D01*
G02X14861Y59021I0J-400D01*
G01X9489Y53650D01*
X9361Y53712D01*
G03X10917Y52156I-1487J-3043D01*
G01X10854Y52284D01*
X12919Y54349D01*
G02X13602Y54066I283J-283D01*
G01Y47762D01*
X9489Y43650D01*
X9361Y43712D01*
G03X7489Y37305I-1487J-3043D01*
G02X7726Y36624I-46J-397D01*
G01X6909Y35807D01*
Y33919D01*
X6774Y33872D01*
G03X8974I1100J-3203D01*
G01X8839Y33919D01*
Y35007D01*
X12560Y38728D01*
Y41509D01*
X17107Y46057D01*
Y53799D01*
X22572Y59265D01*
G02X23255Y58982I283J-283D01*
G01Y56165D01*
G03X23422Y55737I631J0D01*
G02X23431Y55476I-147J-136D01*
G03X23291Y55079I490J-397D01*
G01Y51535D01*
G03X23411Y51165I631J0D01*
G02X23408Y50926I-162J-118D01*
G03X23279Y50543I501J-383D01*
G01Y47000D01*
G03X23376Y46664I631J0D01*
G02X23370Y46442I-169J-107D01*
G03X23255Y46079I516J-363D01*
G01Y42535D01*
G03X23439Y42091I631J0D01*
G03X23255Y41646I448J-445D01*
G01Y38102D01*
G03X23886Y37472I631J0D01*
G01X26642D01*
G03X27272Y38102I0J631D01*
G01Y41646D01*
G03X27089Y42091I-631J0D01*
G03X27272Y42535I-448J445D01*
G01Y46079D01*
G03X27175Y46415I-631J0D01*
G02X27181Y46637I169J107D01*
G03X27296Y47000I-516J363D01*
G01Y50543D01*
G03X27176Y50914I-631J0D01*
G02X27178Y51153I162J118D01*
G03X27308Y51535I-501J383D01*
G01Y55079D01*
G03X27141Y55507I-631J0D01*
G02X27132Y55769I147J136D01*
G03X27272Y56165I-490J397D01*
G01Y59708D01*
X29948D01*
Y56165D01*
G03X30115Y55737I631J0D01*
G02X30124Y55476I-147J-136D01*
G03X29983Y55079I490J-397D01*
G01Y51535D01*
G03X30104Y51165I631J0D01*
G02X30101Y50926I-162J-118D01*
G03X29972Y50543I501J-383D01*
G01Y47000D01*
G03X30069Y46664I631J0D01*
G02X30063Y46442I-169J-107D01*
G03X29948Y46079I516J-363D01*
G01Y42535D01*
G03X30131Y42091I631J0D01*
G03X29948Y41646I448J-445D01*
G01Y38102D01*
G03X30579Y37472I631J0D01*
G01X33335D01*
G03X33965Y38102I0J631D01*
G01Y39204D01*
X40944D01*
X43926Y42185D01*
Y44188D01*
X44554D01*
Y40823D01*
G03X44599Y40589I631J0D01*
G01X44613Y40554D01*
Y39236D01*
X44625Y39224D01*
Y38505D01*
X44370D01*
G03X43739Y37874I0J-631D01*
G01Y36934D01*
X43700Y36895D01*
Y29291D01*
G03X44331Y28661I631J0D01*
G01X47087D01*
G03X47605Y28932I0J631D01*
G02X47832Y29008I164J-114D01*
G03X48031Y28976I199J599D01*
G01X51575D01*
G03X51691Y28986I1J631D01*
G02X52165Y28593I74J-393D01*
G01Y26929D01*
G03X52795Y26298I631J0D01*
G01X56339D01*
G03X56832Y26537I0J631D01*
G02X57459I313J-249D01*
G03X57953Y26298I494J392D01*
G01X61496D01*
G03X62127Y26929I0J631D01*
G01Y29685D01*
G03X62123Y29753I-631J1D01*
G02X62284Y29971I199J22D01*
G03X62534Y30079I-119J619D01*
G02X63169Y29755I234J-324D01*
G01Y17158D01*
G02X62659Y16774I-400J0D01*
G03X61157Y16373I-415J-1459D01*
G02X60888Y16357I-143J139D01*
G03X60492Y16497I-396J-491D01*
G01X57264D01*
G03X56649Y16007I0J-631D01*
G02X56417Y15856I-195J45D01*
G03X56299Y15867I-117J-620D01*
G01X51575D01*
G03X51457Y15856I0J-631D01*
G02X51225Y16007I-37J196D01*
G03X50610Y16497I-615J-141D01*
G01X47382D01*
G03X46900Y16273I0J-631D01*
G01X46840Y16202D01*
X46069D01*
X44726Y17545D01*
Y22969D01*
X44833Y23024D01*
G03X42619Y24434I-700J1346D01*
G01X42615Y24356D01*
X42598Y24339D01*
Y18551D01*
X42298Y18251D01*
X42220Y18248D01*
G03X41758Y15310I64J-1515D01*
G01X41889Y15261D01*
Y14922D01*
X41246D01*
X40307Y15861D01*
Y20202D01*
X41595Y21489D01*
Y22689D01*
G03X40466Y25366I-965J1170D01*
G02X40039Y25875I-43J398D01*
G03X37105Y26640I-1456J424D01*
G02X36661Y26333I-390J90D01*
G03X36575Y26339I-86J-625D01*
G01X33031D01*
G03X32401Y25709I0J-631D01*
G01Y22953D01*
G03X33031Y22322I631J0D01*
G01X36575D01*
G03X36673Y22330I-1J631D01*
G01X36774Y22346D01*
X36987Y22132D01*
X36633Y21778D01*
Y12442D01*
X35827D01*
G03X35196Y11811I0J-631D01*
G01Y9055D01*
G03X35827Y8424I631J0D01*
G01X39370D01*
G03X40001Y9055I0J631D01*
G01Y9468D01*
X40735D01*
X40813Y9546D01*
X46840D01*
X46900Y9475D01*
G03X46910Y9463I482J407D01*
G02Y9198I-150J-133D01*
G03X46751Y8780I472J-419D01*
G01Y7520D01*
G03X46910Y7101I631J0D01*
G02Y6836I-150J-133D01*
G03X46751Y6417I472J-419D01*
G01Y5157D01*
G03X47382Y4527I631J0D01*
G01X50610D01*
G03X51225Y5016I0J631D01*
G02X51457Y5168I195J-45D01*
G03X51575Y5157I117J620D01*
G01X56299D01*
G03X56417Y5168I0J631D01*
G02X56649Y5016I37J-196D01*
G03X57264Y4527I615J141D01*
G01X60492D01*
G03X60900Y4676I0J631D01*
G01X60956Y4724D01*
X63228D01*
Y4016D01*
G03X63858Y3385I631J0D01*
G01X66614D01*
G03X67245Y4016I0J631D01*
G01Y7559D01*
G03X66614Y8190I-631J0D01*
G01X63858D01*
G03X63228Y7559I0J-631D01*
G01Y6851D01*
X61487D01*
G02X61101Y7356I0J400D01*
G03X61119Y7448I-609J165D01*
G01X61126Y7517D01*
X65099Y11490D01*
Y16251D01*
G02X65782Y16534I400J0D01*
G01X66613Y15702D01*
Y15059D01*
G03X67244Y14428I631J0D01*
G01X67874D01*
X67984Y14061D01*
G03X67816Y13933I834J-1267D01*
G03X67541Y13612I314J-547D01*
G03Y11978I1278J-817D01*
G03X67816Y11657I589J226D01*
G03X69822I1003J1138D01*
G03X70015Y11830I-314J547D01*
G01X70872D01*
X70939Y11897D01*
G02X71550Y11843I283J-283D01*
G03X72067Y11574I517J362D01*
G01X73445D01*
G03X74076Y12205I0J631D01*
G01Y13386D01*
G03X73445Y14017I-631J0D01*
G01X72068D01*
Y17480D01*
X73445D01*
G03X73815Y17599I0J631D01*
G01X73867Y17637D01*
X75693D01*
X75711Y17457D01*
G03X76339Y16889I628J63D01*
G01X79882D01*
G03X80028Y16906I0J631D01*
G01X80051Y16912D01*
X80275D01*
Y14191D01*
X80051D01*
X80028Y14196D01*
G03X79882Y14213I-147J-613D01*
G01X76339D01*
G03X75708Y13583I0J-631D01*
G01Y10827D01*
G03X76339Y10196I631J0D01*
G01X79882D01*
G03X80028Y10213I1J631D01*
G02X80221Y9883I46J-195D01*
G03X82402Y9939I1118J-1025D01*
G01Y21543D01*
X79589Y24356D01*
X79586Y24434D01*
G03X79174Y25411I-1515J-64D01*
G01Y33670D01*
X79190Y33685D01*
Y34994D01*
G03Y37156I-1064J1081D01*
G01Y43680D01*
X77700Y45170D01*
X75028D01*
Y45484D01*
G03X74990Y45701I-631J0D01*
G02X75278Y45943I188J69D01*
G03X75594Y45857I316J546D01*
G01X78350D01*
G03X78981Y46488I0J631D01*
G01Y50031D01*
G03X78866Y50394I-631J0D01*
G02Y50625I163J115D01*
G03X78981Y50988I-516J363D01*
G01Y54531D01*
G03X78350Y55162I-631J0D01*
G01X75594D01*
G03X74964Y54531I0J-631D01*
G01Y50988D01*
G03X75079Y50625I631J0D01*
G02Y50394I-163J-115D01*
G03X74964Y50031I516J-363D01*
G01Y49527D01*
G02X74264Y49263I-400J0D01*
G03X74190Y49341I-1136J-1005D01*
G01Y67559D01*
X74690Y68059D01*
Y68176D01*
X74743Y68233D01*
G03X74690Y70341I-1117J1026D01*
G01Y76833D01*
G03Y78994I-1064J1081D01*
G01Y80026D01*
G03Y82179I-1068J1077D01*
G01Y87149D01*
X74536Y87303D01*
Y88189D01*
X87795D01*
X94415Y94809D01*
G02X95098Y94526I283J-283D01*
G01Y92526D01*
X89147Y86576D01*
X78959D01*
X75661Y83277D01*
Y66913D01*
G03X77591I965J-1170D01*
G01Y82477D01*
X79759Y84645D01*
X89947D01*
X95891Y90589D01*
G02X96574Y90307I283J-283D01*
G01Y55456D01*
X92274Y51156D01*
G02X91591Y51439I-283J283D01*
G01Y60274D01*
G03X89522Y60265I-1040J1104D01*
G01X89586Y60205D01*
Y60191D01*
X89661Y60116D01*
Y23147D01*
X98813Y13995D01*
X105794D01*
G02X106026Y13270I0J-400D01*
G03X109958I1966J-2758D01*
G02X110190Y13995I232J326D01*
G01X113143D01*
X115012Y12127D01*
X114949Y11998D01*
G03X116506Y13555I3043J-1487D01*
G01X116377Y13492D01*
X115257Y14612D01*
G02X115540Y15294I283J283D01*
G01X127886D01*
X128615Y14566D01*
G02X128296Y13885I-283J-283D01*
G03X131365Y10816I-304J-3373D01*
G02X132046Y11134I398J36D01*
G01X133733Y9448D01*
X134777D01*
G03X134947Y11993I3215J1063D01*
G02X134304Y11885I-360J175D01*
G01X128767Y17422D01*
X100232D01*
X93190Y24465D01*
Y49063D01*
X98702Y54575D01*
Y70198D01*
G02X99207Y70584I400J0D01*
G03X100572Y73217I399J1463D01*
G01Y126355D01*
X105141Y130924D01*
X130294D01*
X136828Y137459D01*
G03X135463Y138824I1613J2978D01*
G01X129494Y132855D01*
X123486D01*
G02X123204Y133538I0J400D01*
G01X126633Y136967D01*
G03X126650Y136984I-726J778D01*
G01X127075Y137409D01*
X127201Y137352D01*
G03X125573Y138916I1397J3085D01*
G01X125163Y138506D01*
G03X125145Y138489I726J-778D01*
G01X121480Y134824D01*
X115473D01*
G02X115191Y135506I0J400D01*
G01X117141Y137457D01*
X117269Y137394D01*
G03X115778Y138824I1487J3043D01*
G01X113179Y136225D01*
X103757D01*
X96746Y129213D01*
G02X96063Y129496I-283J283D01*
G01Y163780D01*
X164567D01*
Y3150D01*
X162992Y1575D01*
X40325D01*
G02X39955Y2125I0J400D01*
G03X40001Y2362I-585J237D01*
G01Y2775D01*
X42014D01*
X43249Y4009D01*
Y4212D01*
X44055D01*
G03X44686Y4843I0J631D01*
G01Y7598D01*
G03X44055Y8229I-631J0D01*
G01X40512D01*
G03X39881Y7598I0J-631D01*
G01Y6143D01*
G02X39438Y5745I-400J0D01*
G03X39370Y5749I-67J-627D01*
G01X35827D01*
G03X35196Y5118I0J-631D01*
G01Y2362D01*
G03X35242Y2125I631J0D01*
G02X34872Y1575I-371J-150D01*
G01X394D01*
G37*
G36*
G01X0Y75591D02*
Y114539D01*
G02X474Y114931I400J0D01*
G03X591Y114920I117J620D01*
G01X11220D01*
G03X11851Y115551I0J631D01*
G01Y125787D01*
G03X11220Y126418I-631J0D01*
G01X591D01*
G03X474Y126407I1J-631D01*
G02X0Y126800I-74J393D01*
G01Y144854D01*
G02X474Y145246I400J0D01*
G03X591Y145235I117J620D01*
G01X11220D01*
G03X11851Y145866I0J631D01*
G01Y156102D01*
G03X11220Y156733I-631J0D01*
G01X591D01*
G03X474Y156722I1J-631D01*
G02X0Y157115I-74J393D01*
G01Y163780D01*
X95276D01*
Y127743D01*
X95098Y127565D01*
Y97066D01*
X87008Y88976D01*
X75680D01*
G02X75358Y89614I0J400D01*
G03X75481Y89988I-507J374D01*
G01Y93531D01*
G03X75366Y93894I-631J0D01*
G01X75329Y93948D01*
X75330Y94074D01*
X75366Y94125D01*
G03X75420Y94216I-515J364D01*
G01X75443Y94265D01*
X75626Y94391D01*
X75809Y94265D01*
X75832Y94217D01*
G03X76402Y93857I569J272D01*
G01X79157D01*
G03X79788Y94488I0J631D01*
G01Y96033D01*
G02X80471Y96315I400J0D01*
G01X81591Y95196D01*
X82464D01*
Y94488D01*
G03X83094Y93857I631J0D01*
G01X85850D01*
G03X86481Y94488I0J631D01*
G01Y98031D01*
G03X86366Y98394I-631J0D01*
G01X86330Y98446D01*
Y98573D01*
X86366Y98625D01*
G03X86481Y98988I-516J363D01*
G01Y102531D01*
G03X85850Y103162I-631J0D01*
G01X85536D01*
Y104035D01*
X84690Y104881D01*
Y106905D01*
X85398D01*
G03X85761Y107020I0J631D01*
G01X85813Y107056D01*
X85939D01*
X85991Y107020D01*
G03X86354Y106905I363J516D01*
G01X89898D01*
G03X90528Y107535I0J631D01*
G01Y110291D01*
G03X89898Y110922I-631J0D01*
G01X86354D01*
G03X86012Y110821I0J-631D01*
G01X85989Y110807D01*
X85876Y110770D01*
X85763Y110807D01*
X85740Y110821D01*
G03X85398Y110922I-342J-530D01*
G01X81854D01*
G03X81581Y110859I0J-631D01*
G01X81539Y110840D01*
X80815D01*
G02X80417Y111267I0J400D01*
G03X80418Y111311I-629J45D01*
G01Y112177D01*
G03X79787Y112808I-631J0D01*
G01X77701D01*
G03X77070Y112177I0J-631D01*
G01Y111311D01*
G03X77209Y110915I631J0D01*
G01X77230Y110891D01*
X77279Y110760D01*
X77230Y110629D01*
X77209Y110604D01*
G03X77168Y110546I491J-396D01*
G02X76547Y110477I-338J214D01*
G01X75674Y111350D01*
Y114204D01*
X77012D01*
G03X77643Y114835I0J631D01*
G01Y115437D01*
X77666Y115461D01*
Y117924D01*
X77980D01*
G03X78611Y118555I0J631D01*
G01Y122098D01*
G03X77980Y122729I-631J0D01*
G01X75224D01*
G03X74594Y122098I0J-631D01*
G01Y118555D01*
G03X74713Y118186I631J0D01*
G02X74389Y117552I-324J-234D01*
G01X72123D01*
G02X71799Y118186I0J400D01*
G03X71918Y118555I-511J369D01*
G01Y122098D01*
G03X71287Y122729I-631J0D01*
G01X68531D01*
G03X68261Y122668I0J-631D01*
G02X67690Y123030I-171J362D01*
G01Y125106D01*
X69430Y126846D01*
G02X69771Y126705I141J-141D01*
G01Y126488D01*
G03X70402Y125857I631J0D01*
G01X73157D01*
G03X73788Y126488I0J631D01*
G01Y127300D01*
X75174Y128685D01*
Y131592D01*
X75174Y131598D01*
Y133685D01*
G03X74543Y134316I-631J0D01*
G01X71709D01*
G03X71078Y133685I0J-631D01*
G01Y131598D01*
X71078Y131592D01*
Y130662D01*
X70402D01*
G03X69771Y130031I0J-631D01*
G01Y129324D01*
X68898D01*
X65562Y125987D01*
Y115153D01*
X64024Y113615D01*
X61354D01*
G03X60724Y112984I0J-631D01*
G01Y110228D01*
G03X61354Y109598I631J0D01*
G01X62666D01*
X63552Y108712D01*
X67458D01*
X67464Y108712D01*
X69551D01*
G03X70182Y109343I0J631D01*
G01Y110209D01*
G03X70043Y110604I-631J0D01*
G01X70022Y110629D01*
X69973Y110760D01*
X70022Y110891D01*
X70043Y110915D01*
G03X70182Y111311I-491J395D01*
G01Y112177D01*
G03X69551Y112808I-631J0D01*
G01X67465D01*
X67464D01*
X67458Y112807D01*
X67191D01*
G02X66909Y113490I0J400D01*
G01X67690Y114272D01*
Y117624D01*
G02X68261Y117985I400J0D01*
G03X68531Y117924I271J570D01*
G01X69405D01*
G02X69729Y117290I0J-400D01*
G03X69609Y116921I511J-369D01*
G01Y114835D01*
G03X70240Y114204I631J0D01*
G01X73546D01*
Y110469D01*
X76017Y107998D01*
G02X75734Y107316I-283J-283D01*
G01X70240D01*
G03X69632Y106852I0J-631D01*
G01X69591Y106706D01*
X68387D01*
X66211Y104530D01*
G02X65528Y104813I-283J283D01*
G01Y106291D01*
G03X64898Y106922I-631J0D01*
G01X61354D01*
G03X60724Y106291I0J-631D01*
G01Y103535D01*
G03X61354Y102905I631J0D01*
G01X64789D01*
Y102683D01*
X64785Y102663D01*
G03X64771Y102532I617J-131D01*
G01Y98988D01*
G03X64872Y98646I631J0D01*
G01X64886Y98623D01*
X64922Y98510D01*
X64886Y98396D01*
X64872Y98374D01*
G03X64771Y98032I530J-342D01*
G01Y94488D01*
G03X64872Y94146I631J0D01*
G01X64886Y94123D01*
X64922Y94010D01*
X64886Y93896D01*
X64872Y93874D01*
G03X64771Y93532I530J-342D01*
G01Y89988D01*
G03X64894Y89614I630J0D01*
G02X64572Y88976I-322J-237D01*
G01X51575D01*
X38189Y75591D01*
X0D01*
G37*
G36*
G01X38445Y44920D02*
G03X38398Y44922I-50J-629D01*
G01X35322D01*
X34874Y45371D01*
X33965D01*
Y46079D01*
G03X33868Y46415I-631J0D01*
G02X33874Y46637I169J107D01*
G03X33989Y47000I-516J363D01*
G01Y47708D01*
X34494D01*
X34541Y47681D01*
G03X34854Y47598I314J547D01*
G01X38398D01*
G03X38617Y47637I0J630D01*
G01X38737Y47681D01*
X38969Y47450D01*
X38661Y47141D01*
Y45120D01*
G02X38445Y44920I-200J0D01*
G37*
G36*
G01X47717Y34109D02*
X47727Y34139D01*
G03X47757Y34331I-601J192D01*
G01Y35472D01*
G02X47975Y35671I200J0D01*
G03X48031Y35669I59J628D01*
G01X51575D01*
G03X51699Y35681I1J631D01*
G01X51804Y35702D01*
X52317Y35189D01*
G02X52299Y34606I-283J-283D01*
G03X52086Y34134I417J-472D01*
G01Y33387D01*
G02X51643Y32989I-400J0D01*
G03X51575Y32993I-67J-627D01*
G01X48031D01*
G03X47945Y32987I-1J-631D01*
G01X47931Y32985D01*
X47717D01*
Y34109D01*
G37*
G36*
G01X56496Y79627D02*
G03X56102Y79765I-394J-493D01*
G01X52559D01*
G03X52479Y79759I0J-631D01*
G02X52028Y80156I-51J397D01*
G01Y81984D01*
G03X52027Y82024I-631J1D01*
G02X52478Y82445I399J25D01*
G03X52559Y82440I80J626D01*
G01X56102D01*
G03X56496Y82578I0J631D01*
G03X56890Y82440I394J493D01*
G01X59891D01*
G02X60174Y81757I0J-400D01*
G01X58181Y79765D01*
X56890D01*
G03X56496Y79627I0J-631D01*
G37*
G36*
G01X69454Y23297D02*
X69091Y23660D01*
Y35405D01*
X69898D01*
G03X70261Y35520I0J631D01*
G02X70491I115J-163D01*
G03X70854Y35405I363J516D01*
G01X71112D01*
G02X71253Y35063I0J-200D01*
G01X70137Y33947D01*
Y23580D01*
G02X69454Y23297I-400J0D01*
G37*
G36*
G01X56832Y30077D02*
G03X56339Y30316I-494J-392D01*
G01X56100D01*
Y30525D01*
X56100Y30534D01*
G03X56103Y30591I-628J59D01*
G01Y34133D01*
X58045D01*
X58779Y33399D01*
Y31307D01*
X58661Y31189D01*
Y30316D01*
X57953D01*
G03X57459Y30077I0J-631D01*
G02X56832I-313J249D01*
G37*
G36*
G01X60698Y41531D02*
X62985D01*
X64707Y39809D01*
Y39074D01*
X65724Y38057D01*
Y37066D01*
G02X65041Y36783I-400J0D01*
G01X62300Y39524D01*
X59246D01*
X58920Y39851D01*
G02X59061Y40192I141J141D01*
G01X60067D01*
G03X60698Y40823I0J631D01*
G01Y41531D01*
G37*
G36*
G01X58446Y37594D02*
X61500D01*
X64454Y34640D01*
G02X64163Y33957I-283J-283D01*
G03X63392Y33763I-29J-1516D01*
G02X62796Y34112I-196J349D01*
G01Y34134D01*
G03X62165Y34765I-631J0D01*
G01X60144D01*
X58845Y36064D01*
X58011D01*
G02X57695Y36709I0J400D01*
G03X58011Y37558I-1199J929D01*
G01X58015Y37634D01*
X58210Y37830D01*
X58446Y37594D01*
G37*
G36*
G01X58611Y64328D02*
Y74445D01*
X58781Y74615D01*
G02X59464Y74333I283J-283D01*
G01Y71988D01*
G03X60094Y71357I631J0D01*
G01X60408D01*
Y65543D01*
X59193Y64328D01*
X58611D01*
G37*
G36*
G01X68665Y89614D02*
G03X68788Y89988I-507J374D01*
G01Y93531D01*
G03X68673Y93894I-631J0D01*
G02Y94125I163J115D01*
G03X68788Y94488I-516J363D01*
G01Y98031D01*
G03X68673Y98394I-631J0D01*
G02Y98625I163J115D01*
G03X68788Y98988I-516J363D01*
G01Y102531D01*
G03X68476Y103076I-630J0D01*
G02X68394Y103704I201J346D01*
G01X69268Y104578D01*
X69592D01*
X69632Y104431D01*
G03X70240Y103968I608J168D01*
G01X73546D01*
Y103162D01*
X72094D01*
G03X71464Y102531I0J-631D01*
G01Y98988D01*
G03X71579Y98625I631J0D01*
G02Y98394I-163J-115D01*
G03X71464Y98031I516J-363D01*
G01Y94488D01*
G03X71579Y94125I631J0D01*
G02Y93894I-163J-115D01*
G03X71464Y93531I516J-363D01*
G01Y89988D01*
G03X71587Y89614I630J0D01*
G02X71265Y88976I-322J-237D01*
G01X68987D01*
G02X68665Y89614I0J400D01*
G37*
G36*
G01X73572Y39422D02*
Y40128D01*
X72285Y41415D01*
G02X72568Y42098I283J283D01*
G01X74398D01*
G03X75028Y42728I0J631D01*
G01Y43042D01*
X76819D01*
X77062Y42799D01*
Y37156D01*
G03X77009Y35048I1064J-1081D01*
G01X77062Y34991D01*
Y34567D01*
X77046Y34551D01*
Y25488D01*
G03Y23252I1024J-1118D01*
G01Y20906D01*
X76339D01*
G03X75708Y20276I0J-631D01*
G01Y19961D01*
X74835D01*
X74638Y19765D01*
X73867D01*
X73815Y19802D01*
G03X73445Y19922I-370J-511D01*
G01X72068D01*
Y33147D01*
X73591Y34671D01*
Y35405D01*
X74398D01*
G03X75028Y36035I0J631D01*
G01Y38791D01*
G03X74398Y39422I-631J0D01*
G01X73572D01*
G37*
G36*
G01X81880Y105145D02*
X78995Y108029D01*
G02X79278Y108712I283J283D01*
G01X79787D01*
G03X79807Y108712I-3J631D01*
G01X81224D01*
Y107535D01*
G03X81854Y106905I631J0D01*
G01X82562D01*
Y105428D01*
G02X81880Y105145I-400J0D01*
G37*
%LPC*%
G75*
G36*
G01X72519Y15059D02*
Y16437D01*
G02X73150Y17068I631J0D01*
G01X74331D01*
G02X74961Y16437I0J-631D01*
G01Y15059D01*
G02X74331Y14428I-631J0D01*
G01X73150D01*
G02X72519Y15059I0J631D01*
G37*
G36*
G01X69920Y4016D02*
Y7559D01*
G02X70551Y8190I631J0D01*
G01X73307D01*
G02X73938Y7559I0J-631D01*
G01Y4016D01*
G02X73307Y3385I-631J0D01*
G01X70551D01*
G02X69920Y4016I0J631D01*
G37*
G36*
G01X25709Y29252D02*
G02X25079Y28621I-631J0D01*
G01X22323D01*
G02X21692Y29249I0J631D01*
G01X21691Y29448D01*
X20513D01*
X20492Y29444D01*
G02X19823I-335J1580D01*
G01X19802Y29448D01*
X19134D01*
G02X18503Y30079I0J631D01*
G01Y32047D01*
G02X19134Y32678I631J0D01*
G01X21677D01*
X21695Y32858D01*
G02X22323Y33426I628J-63D01*
G01X25079D01*
G02X25709Y32795I0J-631D01*
G01Y29252D01*
G37*
G36*
G01X31772Y28621D02*
X29016D01*
G02X28385Y29252I0J631D01*
G01Y32795D01*
G02X29016Y33426I631J0D01*
G01X31772D01*
G02X32308Y33127I0J-631D01*
G01X32367Y33032D01*
X33971D01*
X34011Y33072D01*
X37043D01*
X37102Y33167D01*
G02X37216Y33304I537J-331D01*
G03X37231Y33884I-267J297D01*
G02X37046Y34331I446J446D01*
G01Y37874D01*
G02X37677Y38505I631J0D01*
G01X40433D01*
G02X41064Y37874I0J-631D01*
G01Y34331D01*
G02X40855Y33861I-631J0D01*
G03X40839Y33281I267J-297D01*
G02X41024Y32835I-446J-446D01*
G01Y29291D01*
G02X40394Y28661I-631J0D01*
G01X37638D01*
G02X37102Y28959I0J631D01*
G01X37043Y29054D01*
X36796D01*
X36767Y29045D01*
G02X36575Y29015I-192J601D01*
G01X32367D01*
X32308Y28920D01*
G02X31772Y28621I-536J332D01*
G37*
G36*
G01X56339Y19606D02*
X52795D01*
G02X52165Y20236I0J631D01*
G01Y22992D01*
G02X52795Y23623I631J0D01*
G01X56339D01*
G02X56832Y23384I0J-631D01*
G03X57459I313J249D01*
G02X57953Y23623I494J-392D01*
G01X61496D01*
G02X62127Y22992I0J-631D01*
G01Y20236D01*
G02X61496Y19606I-631J0D01*
G01X57953D01*
G02X57459Y19844I0J631D01*
G03X56832I-313J-249D01*
G02X56339Y19606I-494J392D01*
G37*
G36*
G01X60224Y132035D02*
Y134791D01*
G02X60854Y135422I631J0D01*
G01X64398D01*
G02X65028Y134791I0J-631D01*
G01Y132035D01*
G02X64398Y131405I-631J0D01*
G01X60854D01*
G02X60224Y132035I0J631D01*
G37*
G36*
G01X60964Y116488D02*
Y120031D01*
G02X61594Y120662I631J0D01*
G01X64350D01*
G02X64981Y120031I0J-631D01*
G01Y116488D01*
G02X64350Y115857I-631J0D01*
G01X61594D01*
G02X60964Y116488I0J631D01*
G37*
G36*
G01X33724Y116035D02*
Y118791D01*
G02X34354Y119422I631J0D01*
G01X37898D01*
G02X38528Y118791I0J-631D01*
G01Y116035D01*
G02X37898Y115405I-631J0D01*
G01X34354D01*
G02X33724Y116035I0J631D01*
G37*
G36*
G01X2322Y137795D02*
Y143701D01*
G02X2953Y144331I631J0D01*
G01X8858D01*
G02X9489Y143701I0J-631D01*
G01Y137795D01*
G02X8858Y137165I-631J0D01*
G01X2953D01*
G02X2322Y137795I0J631D01*
G37*
G36*
G01Y127953D02*
Y133858D01*
G02X2953Y134489I631J0D01*
G01X8858D01*
G02X9489Y133858I0J-631D01*
G01Y127953D01*
G02X8858Y127322I-631J0D01*
G01X2953D01*
G02X2322Y127953I0J631D01*
G37*
G36*
G01X69135Y146260D02*
G02X68504Y145629I-631J0D01*
G01X65748D01*
G02X65117Y146260I0J631D01*
G01Y149803D01*
G02X65255Y150197I631J0D01*
G02X65117Y150591I493J394D01*
G01Y154134D01*
G02X65748Y154765I631J0D01*
G01X68504D01*
G02X69135Y154134I0J-631D01*
G01Y150591D01*
G02X68997Y150197I-631J0D01*
G02X69135Y149803I-493J-394D01*
G01Y146260D01*
G37*
G36*
G01X75197Y145629D02*
X74883D01*
Y144461D01*
X74953Y144401D01*
G02X75174Y143921I-409J-480D01*
G01Y141835D01*
G02X74543Y141204I-631J0D01*
G01X71709D01*
G02X71078Y141835I0J631D01*
G01Y143921D01*
G02X71709Y144552I631J0D01*
G01X72755D01*
Y145629D01*
X72441D01*
G02X71810Y146260I0J631D01*
G01Y149803D01*
G02X71948Y150197I631J0D01*
G02X71810Y150591I493J394D01*
G01Y154134D01*
G02X72441Y154765I631J0D01*
G01X75197D01*
G02X75828Y154134I0J-631D01*
G01Y150591D01*
G02X75690Y150197I-631J0D01*
G02X75828Y149803I-493J-394D01*
G01Y149170D01*
X80724D01*
Y149484D01*
G02X81354Y150115I631J0D01*
G01X84898D01*
G02X85261Y150000I0J-631D01*
G03X85491I115J163D01*
G02X85854Y150115I363J-516D01*
G01X89398D01*
G02X90028Y149484I0J-631D01*
G01Y146728D01*
G02X89398Y146098I-631J0D01*
G01X85854D01*
G02X85491Y146213I0J631D01*
G03X85261I-115J-163D01*
G02X84898Y146098I-363J516D01*
G01X81354D01*
G02X80724Y146728I0J631D01*
G01Y147043D01*
X76775D01*
X76700Y146968D01*
X75828D01*
Y146260D01*
G02X75197Y145629I-631J0D01*
G37*
G36*
G01X69051Y133743D02*
X66965D01*
G02X66334Y134374I0J631D01*
G01Y135240D01*
G02X66493Y135659I631J0D01*
G03Y135924I-149J133D01*
G02X66334Y136343I472J418D01*
G01Y137209D01*
G02X66493Y137627I631J0D01*
G03Y137893I-149J133D01*
G02X66334Y138311I472J418D01*
G01Y139042D01*
X65028D01*
Y138728D01*
G02X64398Y138098I-631J0D01*
G01X60854D01*
G02X60224Y138728I0J631D01*
G01Y141484D01*
G02X60854Y142115I631J0D01*
G01X64398D01*
G02X65028Y141484I0J-631D01*
G01Y141170D01*
X65949D01*
X66556Y141777D01*
X68008D01*
G02X68034Y141776I-3J-1064D01*
G01X69051D01*
G02X69682Y141146I0J-631D01*
G01Y140598D01*
G03X70195Y140214I400J0D01*
G02X69969Y137393I431J-1454D01*
G03X69682Y137212I-87J-180D01*
G01Y136343D01*
G02X69523Y135924I-631J0D01*
G03Y135659I149J-133D01*
G02X69682Y135240I-472J-418D01*
G01Y134374D01*
G02X69051Y133743I-631J0D01*
G37*
G36*
G01X85761Y113713D02*
G02X85398Y113598I-363J516D01*
G01X81854D01*
G02X81224Y114228I0J631D01*
G01Y116984D01*
G02X81854Y117615I631J0D01*
G01X85398D01*
G02X85761Y117500I0J-631D01*
G03X85991I115J163D01*
G02X86354Y117615I363J-516D01*
G01X89898D01*
G02X90528Y116984I0J-631D01*
G01Y114228D01*
G02X89898Y113598I-631J0D01*
G01X86354D01*
G02X85991Y113713I0J631D01*
G03X85761I-115J-163D01*
G37*
G36*
G01X19994Y128611D02*
G02X15439I-2278J-2233D01*
G03X15153Y129291I-286J280D01*
G01X13780D01*
G02X13149Y129921I0J631D01*
G01Y141732D01*
G02X13780Y142363I631J0D01*
G01X15153D01*
G03X15439Y143043I0J400D01*
G02X19994I2278J2233D01*
G03X20280Y142363I286J-280D01*
G01X20472D01*
G02X21103Y141732I0J-631D01*
G01Y131772D01*
X23220D01*
X23287Y131706D01*
X27441D01*
X33562Y137827D01*
Y141405D01*
X32854D01*
G02X32224Y142035I0J631D01*
G01Y144791D01*
G02X32854Y145422I631J0D01*
G01X33232D01*
Y145661D01*
X33218Y145696D01*
G02X33623Y147398I1408J564D01*
G03X33359Y148098I-264J300D01*
G01X32854D01*
G02X32224Y148728I0J631D01*
G01Y151484D01*
G02X32854Y152115I631J0D01*
G01X36398D01*
G02X37028Y151484I0J-631D01*
G01Y148728D01*
G02X36398Y148098I-631J0D01*
G01X35893D01*
G03X35629Y147398I0J-400D01*
G02X36034Y145696I-1003J-1138D01*
G01X36020Y145661D01*
Y145422D01*
X36398D01*
G02X37028Y144791I0J-631D01*
G01Y142035D01*
G02X36398Y141405I-631J0D01*
G01X35690D01*
Y136946D01*
X28322Y129578D01*
X21002D01*
G02X20472Y129291I-529J343D01*
G01X20280D01*
G03X19994Y128611I0J-400D01*
G37*
G36*
G01X79850Y125857D02*
X77094D01*
G02X76464Y126488I0J631D01*
G01Y130031D01*
G02X77094Y130662I631J0D01*
G01X79850D01*
G02X80140Y130592I0J-631D01*
G03X80724Y130947I183J355D01*
G01Y131418D01*
X79539Y132603D01*
Y132619D01*
X78414Y133743D01*
X78244D01*
G02X78218Y133743I3J1064D01*
G01X77201D01*
G02X76570Y134374I0J631D01*
G01Y135240D01*
G02X76729Y135659I631J0D01*
G03Y135924I-149J133D01*
G02X76570Y136343I472J418D01*
G01Y137209D01*
G02X76729Y137627I631J0D01*
G03Y137893I-149J133D01*
G02X76570Y138311I472J418D01*
G01Y139177D01*
G02X76729Y139596I631J0D01*
G03Y139861I-149J133D01*
G02X76570Y140280I472J418D01*
G01Y141146D01*
G02X77201Y141776I631J0D01*
G01X78218D01*
G02X78244Y141777I29J-1063D01*
G01X80724D01*
Y142791D01*
G02X81354Y143422I631J0D01*
G01X84898D01*
G02X85261Y143307I0J-631D01*
G03X85491I115J163D01*
G02X85854Y143422I363J-516D01*
G01X89398D01*
G02X90028Y142791I0J-631D01*
G01Y140035D01*
G02X90002Y139856I-630J0D01*
G03X90233Y139603I192J-57D01*
G02X90354Y139615I121J-619D01*
G01X93898D01*
G02X94528Y138984I0J-631D01*
G01Y136228D01*
G02X93898Y135598I-631J0D01*
G01X90354D01*
G02X89991Y135713I0J631D01*
G03X89761I-115J-163D01*
G02X89398Y135598I-363J516D01*
G01X85854D01*
G02X85491Y135713I0J631D01*
G03X85261I-115J-163D01*
G02X84898Y135598I-363J516D01*
G01X81354D01*
G02X80724Y136228I0J631D01*
G01Y137680D01*
X80316D01*
G03X79917Y137252I0J-400D01*
G02X79918Y137209I-629J-45D01*
G01Y136343D01*
G02X79759Y135924I-631J0D01*
G03Y135659I149J-133D01*
G02X79914Y135313I-472J-418D01*
G01X79922Y135244D01*
X81666Y133500D01*
Y133484D01*
X82228Y132922D01*
X84898D01*
G02X85261Y132807I0J-631D01*
G03X85491I115J163D01*
G02X85854Y132922I363J-516D01*
G01X89398D01*
G02X89761Y132807I0J-631D01*
G03X89991I115J163D01*
G02X90354Y132922I363J-516D01*
G01X93898D01*
G02X94528Y132291I0J-631D01*
G01Y129535D01*
G02X93898Y128905I-631J0D01*
G01X90354D01*
G02X89991Y129020I0J631D01*
G03X89761I-115J-163D01*
G02X89398Y128905I-363J516D01*
G01X85854D01*
G02X85491Y129020I0J631D01*
G03X85261I-115J-163D01*
G02X84898Y128905I-363J516D01*
G01X81354D01*
G02X81065Y128975I0J631D01*
G03X80481Y128620I-183J-355D01*
G01Y126488D01*
G02X79850Y125857I-631J0D01*
G37*
G36*
G01X48097Y104330D02*
G02X47927Y106875I-3215J1063D01*
G03X48570Y106767I360J175D01*
G01X51409Y109606D01*
Y115857D01*
X51094D01*
G02X50464Y116488I0J631D01*
G01Y120031D01*
G02X51094Y120662I631J0D01*
G01X53850D01*
G02X54250Y120520I0J-631D01*
G03X54502I126J155D01*
G02X54902Y120662I399J-489D01*
G01X55216D01*
Y121535D01*
X55562Y121881D01*
Y123405D01*
X54854D01*
G02X54224Y124035I0J631D01*
G01Y124350D01*
X53560D01*
X52079Y122869D01*
X51206D01*
Y122437D01*
G02X50575Y121806I-631J0D01*
G01X47190D01*
Y120679D01*
X47334Y120637D01*
G02X47788Y120031I-176J-606D01*
G01Y116488D01*
G02X47157Y115857I-631J0D01*
G01X44402D01*
G02X43771Y116488I0J631D01*
G01Y120031D01*
G02X44402Y120662I631J0D01*
G01X45062D01*
Y121806D01*
X41677D01*
G02X41046Y122437I0J631D01*
G01Y122869D01*
X40173D01*
X40000Y123042D01*
X38528D01*
Y122728D01*
G02X37898Y122098I-631J0D01*
G01X34354D01*
G02X33724Y122728I0J631D01*
G01Y125484D01*
G02X34354Y126115I631J0D01*
G01X37898D01*
G02X38528Y125484I0J-631D01*
G01Y125170D01*
X41046D01*
Y125429D01*
G02X41047Y125457I631J-3D01*
G03X40933Y125647I-200J9D01*
G02X40574Y126217I271J569D01*
G01Y133303D01*
G02X40933Y133872I631J0D01*
G03X41047Y134062I-86J181D01*
G02X41046Y134091I630J32D01*
G01Y137083D01*
G02X41677Y137713I631J0D01*
G01X43093D01*
Y140001D01*
X42562Y140532D01*
Y141405D01*
X41854D01*
G02X41224Y142035I0J631D01*
G01Y144791D01*
G02X41854Y145422I631J0D01*
G01X45398D01*
G02X45493Y145415I-1J-631D01*
G01X45508Y145413D01*
X45724D01*
Y148107D01*
X45508D01*
X45493Y148105D01*
G02X45398Y148098I-97J623D01*
G01X41854D01*
G02X41224Y148728I0J631D01*
G01Y151484D01*
G02X41854Y152115I631J0D01*
G01X45398D01*
G02X45493Y152107I-1J-631D01*
G01X45508Y152106D01*
X45724D01*
Y154984D01*
G02X46354Y155615I631J0D01*
G01X49898D01*
G02X50528Y154984I0J-631D01*
G01Y154670D01*
X56700D01*
X58190Y153180D01*
Y152115D01*
X58898D01*
G02X59528Y151484I0J-631D01*
G01Y148728D01*
G02X58898Y148098I-631J0D01*
G01X55354D01*
G02X54991Y148213I0J631D01*
G03X54761I-115J-163D01*
G02X54398Y148098I-363J516D01*
G01X53893D01*
G03X53629Y147398I0J-400D01*
G02X54034Y145696I-1003J-1138D01*
G01X54020Y145661D01*
Y145422D01*
X54398D01*
G02X54761Y145307I0J-631D01*
G03X54991I115J163D01*
G02X55354Y145422I363J-516D01*
G01X58898D01*
G02X59528Y144791I0J-631D01*
G01Y142035D01*
G02X58898Y141405I-631J0D01*
G01X55354D01*
G02X54991Y141520I0J631D01*
G03X54761I-115J-163D01*
G02X54398Y141405I-363J516D01*
G01X53690D01*
Y140532D01*
X51127Y137969D01*
Y137391D01*
X51146Y137351D01*
G02X51206Y137083I-571J-268D01*
G01Y136651D01*
X53192D01*
X55728Y134115D01*
X58398D01*
G02X59028Y133484I0J-631D01*
G01Y130728D01*
G02X58398Y130098I-631J0D01*
G01X54854D01*
G02X54224Y130728I0J631D01*
G01Y132610D01*
X52311Y134523D01*
X51206D01*
Y134091D01*
G02X51205Y134062I-631J3D01*
G03X51319Y133872I200J-9D01*
G02X51678Y133303I-271J-569D01*
G01Y126217D01*
G02X51629Y125972I-631J0D01*
G01X51577Y125848D01*
X51813Y125612D01*
X52679Y126478D01*
X54224D01*
Y126791D01*
G02X54854Y127422I631J0D01*
G01X58398D01*
G02X59028Y126791I0J-631D01*
G01Y124035D01*
G02X58398Y123405I-631J0D01*
G01X57690D01*
Y121000D01*
X57536Y120846D01*
X57720Y120662D01*
X57780Y120650D01*
G02X58288Y120031I-123J-619D01*
G01Y116488D01*
G02X57657Y115857I-631J0D01*
G01X54902D01*
G02X54502Y116000I0J631D01*
G03X54250I-126J-155D01*
G02X53850Y115857I-399J489D01*
G01X53536D01*
Y108725D01*
X49141Y104330D01*
X48097D01*
G37*
G54D37*
X85630Y27441D03*
Y37441D03*
Y47441D03*
Y57441D03*
Y67441D03*
Y77441D03*
X107992Y119528D03*
X108913Y140437D03*
X147992Y10512D03*
X157992D03*
Y119528D03*
X148283Y140437D03*
X44882Y95394D03*
G54D38*
X23228Y82520D03*
Y92520D03*
Y102520D03*
%LPD*%
G75*
G36*
G01X49898Y144905D02*
G03X49993Y144912I-1J631D01*
G01X50008Y144914D01*
X50224D01*
Y142035D01*
G03X50854Y141405I631J0D01*
G01X51070D01*
G02X51212Y141063I0J-200D01*
G01X48999Y138850D01*
Y137713D01*
X47190D01*
Y140320D01*
X49190Y142320D01*
Y144905D01*
X49898D01*
G37*
G54D10*
X7874Y30669D03*
Y40669D03*
Y50669D03*
Y60669D03*
X44882Y95394D03*
Y105394D03*
X85630Y27441D03*
Y37441D03*
Y47441D03*
Y57441D03*
Y67441D03*
Y77441D03*
X107992Y10512D03*
Y119528D03*
X108913Y140437D03*
X117992Y10512D03*
X127992D03*
X118756Y140437D03*
X128598D03*
X137992Y10512D03*
X138441Y140437D03*
X147992Y10512D03*
X157992D03*
Y119528D03*
X148283Y140437D03*
G54D20*
X53937Y10512D03*
G54D11*
X7874Y76772D03*
Y70866D03*
X25264Y39874D03*
X25299Y53307D03*
X25287Y48772D03*
X25264Y44307D03*
Y57937D03*
X40630Y23858D03*
X34803Y24331D03*
X38583Y26299D03*
X39055Y36102D03*
X31957Y39874D03*
X31992Y53307D03*
X31957Y57937D03*
X39449Y66181D03*
X36126Y120260D03*
X34626Y146260D03*
X42283Y6220D03*
X53937Y10512D03*
X42283Y16732D03*
X44134Y24370D03*
X54528Y21614D03*
X52626Y52260D03*
X47705Y67374D03*
X49673Y65130D03*
X53622Y68031D03*
X51654Y69685D03*
X55579Y65957D03*
X49626Y80606D03*
X54331Y84448D03*
X49173Y114264D03*
X42126Y139229D03*
X48095D03*
X52626Y146260D03*
X65236Y5787D03*
X68819Y18701D03*
X62244Y15315D03*
X68819Y12795D03*
X62283D03*
X59724Y21614D03*
X56496Y37638D03*
X64134Y32441D03*
X65626Y47260D03*
X70280Y48260D03*
X68126Y44106D03*
X66811Y54685D03*
X67717Y65945D03*
X69921Y57126D03*
X67740Y59374D03*
X64882Y63425D03*
X58661Y77756D03*
X62992Y84448D03*
X58661D03*
X67717Y84252D03*
X63126Y96260D03*
Y111260D03*
X62941Y114630D03*
X69909Y120327D03*
X67126Y148031D03*
X81339Y8858D03*
X71929Y5787D03*
X78071Y24370D03*
X78110Y12051D03*
X78126Y36075D03*
X80126Y31260D03*
X73126Y48260D03*
X76626D03*
X80059D03*
X80126Y52760D03*
X76972D03*
X76626Y65744D03*
X73626Y69260D03*
Y77914D03*
X73622Y81102D03*
X80126Y83760D03*
Y71260D03*
Y75445D03*
X83626Y115606D03*
X78626Y128020D03*
X70626Y138760D03*
X85630Y5512D03*
X85591Y12559D03*
X94094Y31260D03*
X90551Y61378D03*
X99606Y72047D03*
X88126Y115606D03*
X92126Y130914D03*
X87626D03*
X92126Y137606D03*
X87626Y147760D03*
G54D21*
X48996Y5787D03*
Y8150D03*
Y10512D03*
Y12874D03*
Y15236D03*
X58878Y10512D03*
Y8150D03*
Y5787D03*
Y15236D03*
Y12874D03*
G54D30*
X76579Y105642D03*
X74610D03*
X72642D03*
X70673D03*
Y115878D03*
X72642D03*
X74610D03*
X76579D03*
X74110Y132642D03*
X72142D03*
Y142878D03*
X74110D03*
G54D12*
X5906Y120669D03*
Y150984D03*
G54D31*
G01X22846Y130642D02*
X27881D01*
X34626Y137387D01*
Y143413D01*
G01X22846Y130642D02*
X21602D01*
X21535Y130709D01*
G01X17126D02*
X21535D01*
G01D02*
X22779D01*
X22846Y130642D01*
G01X21535Y140945D02*
X17126D01*
G01X22846Y140878D02*
X21602D01*
X21535Y140945D01*
G01D02*
X22779D01*
X22846Y140878D01*
G01X32074Y150106D02*
X22846Y140878D01*
G01X42862Y45370D02*
Y42626D01*
X40503Y40267D01*
X32350D01*
X31957Y39874D01*
G01X42862Y53244D02*
X41103D01*
X39544Y54803D01*
X37970D01*
X34837Y57937D01*
X31957D01*
G01X36626Y42913D02*
Y43091D01*
G01D02*
X35650D01*
X34433Y44307D01*
X31957D01*
G01X36614Y49606D02*
X35780Y48772D01*
X31980D01*
G01X36614Y49606D02*
X36615Y49606D01*
X36626D01*
G01X42862Y51276D02*
X40126D01*
X38094Y53307D01*
X31992D01*
G01X39449Y66181D02*
Y69252D01*
X44110Y73913D01*
X49626D01*
G01X39516Y95394D02*
X38650Y96260D01*
Y96736D01*
G01X41295Y95394D02*
X39516D01*
G01X38650Y96736D02*
Y112736D01*
G01D02*
X36520Y114866D01*
G01X36126Y124106D02*
X40441D01*
X40614Y123933D01*
X42189D01*
G01X36126Y120260D02*
Y117414D01*
G01X36520D02*
X40197D01*
G01X36126D02*
X35732D01*
X33291Y119855D01*
G01X36520Y117414D02*
X36126D01*
G01X36520Y114866D02*
Y117414D01*
G01X33291Y119855D02*
Y128265D01*
X40614Y135587D01*
G01X40197Y117414D02*
X44157Y121374D01*
G01X34626Y146260D02*
Y143413D01*
G01X42126Y139229D02*
X40748Y140607D01*
Y146819D01*
X37461Y150106D01*
G01X34232D02*
X32074D01*
G01X37461D02*
X34232D01*
G01X42283Y16732D02*
X43662Y18111D01*
Y23898D01*
X44134Y24370D01*
G01X54094Y32362D02*
X54173Y32283D01*
Y31496D01*
X54567Y31102D01*
Y28307D01*
G01X54331Y77756D02*
X58661D01*
G01X54780Y73760D02*
G01X54780D02*
X49780D01*
X49626Y73914D01*
Y73913D01*
G01X44882Y95394D02*
X41295D01*
G01X44882Y105394D02*
X48701D01*
X52472Y109165D01*
Y118260D01*
G01X49173Y114264D02*
Y116213D01*
X49126Y116260D01*
Y120343D01*
X48095Y121374D01*
G01X52472Y118260D02*
X56280D01*
G01X50063Y123933D02*
X51638D01*
X53119Y125414D01*
X56626D01*
Y125413D01*
G01X45780Y118260D02*
X46126Y118606D01*
Y123933D01*
G01X44157Y121374D02*
Y123933D01*
G01X48095Y121374D02*
Y123933D01*
G01X46126Y135587D02*
Y140760D01*
X48126Y142760D01*
Y146913D01*
G01X52626Y146260D02*
Y143414D01*
G01D02*
Y143413D01*
G01X57126Y143414D02*
X52626D01*
G01X56626Y132106D02*
X56232D01*
X52751Y135587D01*
X50063D01*
G01D02*
Y138410D01*
X52626Y140973D01*
Y143413D01*
G01X43626Y143414D02*
Y143413D01*
G01X44157Y135587D02*
Y140442D01*
X43626Y140973D01*
Y143413D01*
G01X48095Y135587D02*
Y139229D01*
G01X42126D02*
X42189Y139166D01*
G01X40614Y135587D02*
X42189D01*
G01Y139166D02*
Y135587D01*
G01X48126Y146914D02*
Y146913D01*
G01X43626Y150106D02*
X52626D01*
G01X48126Y153606D02*
X56260D01*
X57126Y152740D01*
Y150106D01*
G01X65236Y5787D02*
X58878D01*
G01X60787Y32362D02*
X60866Y32283D01*
Y31890D01*
X59724Y30748D01*
Y28307D01*
G01X68126Y44106D02*
X72626D01*
G01X62390Y49307D02*
X66792D01*
X67839Y48260D01*
X70280D01*
G01X57547Y62024D02*
Y74886D01*
X58626Y75965D01*
X58661Y77756D01*
G01X59516Y62024D02*
Y63146D01*
X61472Y65102D01*
Y73760D01*
G01X67717Y77756D02*
Y65945D01*
G01X58661Y77756D02*
Y78740D01*
X62992Y83071D01*
Y84448D01*
G01Y77756D02*
X67717D01*
G01X63126Y96260D02*
X66780D01*
G01X63126Y104913D02*
Y96260D01*
G01X66780D02*
X69221D01*
G01D02*
X70126Y97165D01*
Y102067D01*
G01X66780Y100760D02*
Y103594D01*
X68827Y105642D01*
X70673D01*
G01X63126Y111260D02*
Y111606D01*
X63520D01*
X66626Y114712D01*
Y125547D01*
X69339Y128260D01*
X71780D01*
G01X68508Y109776D02*
X63992D01*
X63126Y110642D01*
Y111260D01*
G01X68508Y111744D02*
X65559D01*
X65075Y111260D01*
X63126D01*
G01Y104914D02*
Y104913D01*
G01X62941Y114630D02*
X62972Y114661D01*
G01D02*
Y118260D01*
G01X70126Y102067D02*
X72642Y104583D01*
Y105642D01*
G01X56280Y118260D02*
X56280Y121094D01*
X56626Y121441D01*
Y125413D01*
G01X62626Y133413D02*
Y121441D01*
G01D02*
X62972Y121094D01*
G01D02*
Y118260D01*
G01X72642Y119461D02*
X71776Y120327D01*
X69909D01*
G01X62626Y140106D02*
X66390D01*
X66997Y140713D01*
X68008D01*
G01X72142Y142878D02*
X67992D01*
G01X62626Y133413D02*
Y135855D01*
G01X63547Y136776D02*
X68008D01*
G01X62626Y135855D02*
X63547Y136776D01*
G01X67992Y142878D02*
X67126Y143744D01*
G01D02*
Y148031D01*
G01X68008Y138744D02*
X68024Y138760D01*
X70626D01*
G01X67126Y152362D02*
Y148031D01*
G01X57126Y150106D02*
G01X81339Y8858D02*
Y21102D01*
X78110Y24331D01*
G01X72756Y18701D02*
X75079D01*
X75276Y18898D01*
X78110D01*
G01D02*
Y24331D01*
G01D02*
Y34110D01*
X78126Y34126D01*
Y36075D01*
G01X78110Y24331D02*
X78071Y24370D01*
G01X80126Y31260D02*
Y25307D01*
X84212Y21221D01*
Y13937D01*
X85591Y12559D01*
G01X72626Y44106D02*
X77260D01*
X78126Y43240D01*
Y36075D01*
G01X80059Y48260D02*
Y46311D01*
X80126Y46244D01*
Y31260D01*
G01X73126Y48260D02*
Y68000D01*
X73626Y68500D01*
Y69260D01*
G01X72626Y44106D02*
X73126Y44606D01*
Y48260D01*
G01X70280D02*
G01X80126Y52760D02*
Y50276D01*
X80059Y50209D01*
Y48260D01*
G01X80126Y52760D02*
Y71260D01*
G01X73626Y77914D02*
Y69260D01*
G01Y77914D02*
Y86709D01*
X73472Y86863D01*
Y91759D01*
G01X80126Y71260D02*
Y75445D01*
G01D02*
Y83760D01*
G01X73472Y96260D02*
X77780D01*
G01D02*
X77780Y100760D01*
G01X73472Y91759D02*
Y96260D01*
G01X84472D02*
X82031D01*
X81126Y97165D01*
Y104394D01*
X74610Y110910D01*
Y115878D01*
G01X78744Y109776D02*
X82764D01*
X83626Y108914D01*
Y108913D01*
G01X84472Y100760D02*
Y103594D01*
X83626Y104441D01*
Y108913D01*
G01X76579Y105642D02*
Y101626D01*
X77445Y100760D01*
X77780D01*
G01X88126Y115606D02*
X83626D01*
Y112610D01*
G01X82760Y111744D02*
X78744D01*
G01X83626Y112610D02*
X82760Y111744D01*
G01X73472Y100760D02*
G01X74610Y105642D02*
Y101626D01*
X73744Y100760D01*
X73472D01*
G01X71780Y128260D02*
G01X74110Y132642D02*
Y129126D01*
X73244Y128260D01*
X71780D01*
G01X72142Y132642D02*
Y128622D01*
X71780Y128260D01*
G01X72642Y115878D02*
Y119461D01*
G01X76579Y115878D02*
X76472Y115984D01*
G01X76579Y115878D02*
X76602Y115902D01*
Y120327D01*
G01X83126Y137606D02*
G01X78244Y138744D02*
X82260D01*
X83126Y137878D01*
Y137606D01*
G01X74110Y142878D02*
X73819Y143169D01*
Y148031D01*
G01X80914Y135165D02*
X79303Y136776D01*
X78244D01*
G01X87626Y133355D02*
X85816Y135165D01*
X80914D01*
G01X78244Y140713D02*
X82425D01*
X83126Y141414D01*
G01D02*
X87626D01*
Y141413D01*
G01X78244Y134807D02*
X78855D01*
X80602Y133059D01*
Y133044D01*
X82732Y130914D01*
G01X73819Y152362D02*
Y148031D01*
G01X83126Y148106D02*
X76335D01*
X76260Y148031D01*
X73819D01*
G01X85591Y12559D02*
Y7500D01*
X85630Y7461D01*
Y5512D01*
G01X128598Y140437D02*
X125898Y137737D01*
X121921Y133760D01*
X104634D01*
X97638Y126763D01*
Y55015D01*
X92126Y49504D01*
Y24024D01*
X99792Y16358D01*
X128327D01*
X134173Y10512D01*
X137992D01*
G01X94094Y31260D02*
Y48819D01*
X101181Y55906D01*
Y70866D01*
X101555Y71240D01*
Y72855D01*
X101181Y73229D01*
Y126353D01*
X104749Y129921D01*
X137767D01*
G01X88126Y115606D02*
G01X87626Y130913D02*
Y118055D01*
G01D02*
X88126Y117555D01*
Y115606D01*
G01X92126Y130914D02*
X87626D01*
G01D02*
Y130913D01*
G01Y130914D02*
Y133355D01*
G01X92126Y137606D02*
X87626D01*
G01Y137606D02*
Y141413D01*
G01X137767Y129921D02*
X148283Y140437D01*
G54D22*
X52626Y52260D03*
G54D13*
X5906Y130906D03*
Y140748D03*
G54D32*
G01X7874Y76772D02*
Y70866D01*
G01X20157Y31024D02*
X20118Y31063D01*
G01D02*
X23661D01*
X23701Y31024D01*
G54D23*
X42862Y45370D03*
Y47339D03*
Y49307D03*
Y51276D03*
Y53244D03*
Y55213D03*
Y57181D03*
Y59150D03*
X62390Y55213D03*
Y53244D03*
Y51276D03*
Y49307D03*
Y47339D03*
Y45370D03*
Y59150D03*
Y57181D03*
G54D14*
X20118Y31063D03*
G54D33*
G01X47705Y42496D02*
Y39776D01*
X49803Y37677D01*
G01X45736Y42496D02*
Y39701D01*
X45748Y39689D01*
Y36102D01*
G01X49803Y30984D02*
X45787D01*
X45709Y31063D01*
G54D24*
X55579Y42496D03*
X53610D03*
X51642D03*
X49673D03*
X47705D03*
X45736D03*
Y62024D03*
X47705D03*
X49673D03*
X51642D03*
X53610D03*
X55579D03*
X59516Y42496D03*
X57547D03*
Y62024D03*
X59516D03*
G54D15*
X23701Y31024D03*
X25264Y39874D03*
X25299Y53307D03*
X25264Y44307D03*
X25287Y48772D03*
X25264Y57937D03*
X39016Y31063D03*
X30394Y31024D03*
X39055Y36102D03*
X31957Y39874D03*
X31992Y53307D03*
X31957Y44307D03*
X31980Y48772D03*
X31957Y57937D03*
X54094Y32362D03*
X45709Y31063D03*
X45748Y36102D03*
X54780Y73760D03*
X52472Y118260D03*
X45780D03*
X56280D03*
X65236Y5787D03*
X60787Y32362D03*
X70280Y52760D03*
Y48260D03*
X61472Y73760D03*
X66780Y100760D03*
Y91760D03*
Y96260D03*
X69909Y120327D03*
X62972Y118260D03*
X67126Y148031D03*
Y152362D03*
X71929Y5787D03*
X76972Y52760D03*
Y48260D03*
X73472Y100760D03*
X77780D03*
X84472D03*
X77780Y96260D03*
X84472D03*
X73472Y91760D03*
Y96260D03*
X71780Y128260D03*
X78472D03*
X76602Y120327D03*
X73819Y148031D03*
Y152362D03*
G54D34*
G01X39016Y31063D02*
X34843D01*
X34803Y31024D01*
G01D02*
X30394D01*
G01X45748Y36102D02*
X45709Y36063D01*
Y31063D01*
G54D16*
X23228Y82520D03*
Y92520D03*
Y102520D03*
G54D25*
X46126Y129760D03*
G54D35*
G01X25264Y37272D02*
Y39874D01*
G01X23055D02*
X25264D01*
G01D02*
X27472D01*
G01X23079Y48772D02*
X25287D01*
G01D02*
X27496D01*
G01X23055Y44307D02*
X25264D01*
G01D02*
X27472D01*
G01X23091Y53307D02*
X25299D01*
G01D02*
X27508D01*
G01X23055Y57937D02*
X25264D01*
G01D02*
X27472D01*
G01X34803Y22122D02*
Y24331D01*
G01D02*
Y26539D01*
G01X32201Y24331D02*
X34803D01*
G01X39055Y36102D02*
Y38705D01*
G01X36846Y36102D02*
X39055D01*
G01D02*
X41264D01*
G01X36126Y124106D02*
G01X42189Y123933D02*
G01X36126Y115205D02*
Y117413D01*
G01X33524D02*
X36126D01*
G01D02*
X38728D01*
G01X34626Y150106D02*
Y152315D01*
G01Y150106D02*
X37228D01*
G01X54567Y21614D02*
Y23823D01*
G01X51965Y21614D02*
X54567D01*
G01X54331Y82240D02*
Y84449D01*
G01D02*
Y86657D01*
G01X51728Y84449D02*
X54331D01*
G01X49626Y78398D02*
Y80606D01*
G01D02*
Y82815D01*
G01X47024Y80606D02*
X49626D01*
G01D02*
X52228D01*
G01X44882Y91807D02*
Y95394D01*
G01D02*
Y98980D01*
G01Y95394D02*
X48469D01*
G01X50063Y123933D02*
G01X45780Y118260D02*
G01X46126Y123933D02*
G01X44157D02*
G01X48095D02*
X48094Y123933D01*
G01X46126Y135587D02*
G01X57126Y143413D02*
Y143414D01*
G01X56626Y132106D02*
G01X50063Y135587D02*
G01X44157D02*
G01X48094D02*
X48095Y135587D01*
G01X42189D02*
G01X43626Y150106D02*
G01X52626Y150106D02*
G01X48126Y153606D02*
G01X69720Y5787D02*
X71929D01*
G01X59724Y19406D02*
Y21614D01*
G01D02*
Y23823D01*
G01Y21614D02*
X62327D01*
G01X72626Y37413D02*
Y39736D01*
X70599Y41763D01*
G01X64745Y60383D02*
X64882Y60520D01*
Y63425D01*
G01X58661Y82240D02*
Y84449D01*
G01D02*
Y86657D01*
G01X67717Y82240D02*
Y84449D01*
G01D02*
Y86657D01*
G01Y84449D02*
X70319D01*
G01X64571Y91760D02*
X66780D01*
G01D02*
X68988D01*
G01X66780Y100760D02*
G01X70673Y105642D02*
G01X68508Y109776D02*
G01Y111744D02*
G01X72642Y105642D02*
G01X60524Y104913D02*
X63126D01*
G01D02*
X65728D01*
G01X62972Y118260D02*
G01X62972Y118260D02*
Y120862D01*
G01X60764Y118260D02*
X62972D01*
G01D02*
X65181D01*
G01X60024Y133413D02*
X62626D01*
G01D02*
X65228D01*
G01X66134Y136776D02*
X68008D01*
G01D02*
X69882D01*
G01X67126Y152362D02*
Y154965D01*
G01X64917Y152362D02*
X67126D01*
G01D02*
X69335D01*
G01X64917Y148031D02*
X67126D01*
G01D02*
X69335D01*
G01X71929Y3185D02*
Y5787D01*
G01D02*
Y8390D01*
G01Y5787D02*
X74138D01*
G01X78110Y12205D02*
Y14413D01*
G01X75508Y12205D02*
X78110D01*
G01X76972Y45657D02*
Y48260D01*
G01D02*
X79181D01*
G01X76972Y52760D02*
Y55362D01*
G01X74764Y52760D02*
X76972D01*
G01D02*
X79181D01*
G01X82043Y77441D02*
X85630D01*
G01X74610Y115878D02*
G01X76579Y105642D02*
G01X78744Y111744D02*
Y113008D01*
G01X76870Y111744D02*
X78744D01*
G01D02*
X80618D01*
G01X72642Y103768D02*
Y105642D01*
G01D02*
Y107516D01*
G01X74610Y105642D02*
G01X78472Y125657D02*
Y128260D01*
G01D02*
Y130862D01*
G01X76264Y128260D02*
X78472D01*
G01D02*
X80681D01*
G01X83626Y115606D02*
Y117815D01*
G01X81024Y115606D02*
X83626D01*
G01X76472Y115984D02*
X76472Y115985D01*
G01X76370Y136776D02*
X78244D01*
G01D02*
X80118D01*
G01X72142Y141004D02*
Y142878D01*
G01D02*
Y144752D01*
G01X85630Y73854D02*
Y77441D01*
G01D02*
Y81028D01*
G01Y77441D02*
X89217D01*
G01X92126Y128705D02*
Y130913D01*
G01D02*
X94728D01*
G01X127992Y6925D02*
Y10512D01*
G01D02*
Y14098D01*
G01X124406Y10512D02*
X127992D01*
G01D02*
X131579D01*
G01X148283Y136850D02*
Y140437D01*
G01D02*
Y144024D01*
G01Y140437D02*
X151870D01*
G54D26*
X50063Y123933D03*
X48094D03*
X46126D03*
X44157D03*
X42189D03*
Y135587D03*
X44157D03*
X46126D03*
X48094D03*
X50063D03*
G54D17*
X17717Y126378D03*
Y145276D03*
G54D36*
G01X42862Y55213D02*
X41111D01*
X40123Y56201D01*
X38550D01*
X34081Y60669D01*
X33738D01*
X33734Y60673D01*
X23486D01*
X23482Y60669D01*
X22612D01*
X16142Y54199D01*
Y46457D01*
X11594Y41909D01*
Y39128D01*
X7874Y35407D01*
Y30669D01*
G01X42862Y57181D02*
X42731D01*
X42637Y57087D01*
X41337D01*
X40573Y57850D01*
X38737D01*
X34619Y61969D01*
X34276D01*
X34272Y61972D01*
X22948D01*
X22944Y61969D01*
X22074D01*
X14567Y54462D01*
Y47362D01*
X7874Y40669D01*
G01Y50669D02*
X20472Y63268D01*
X22406D01*
X22410Y63272D01*
X34811D01*
X34815Y63268D01*
X35157D01*
X39276Y59150D01*
X42862D01*
G01X7874Y60669D02*
X15787D01*
X19685Y64567D01*
X21868D01*
X21872Y64571D01*
X35349D01*
X35353Y64567D01*
X35826D01*
X38369Y62024D01*
X44220D01*
X45736Y62024D01*
G01X48996Y10512D02*
X40413D01*
X40335Y10433D01*
X37598D01*
G01X38583Y26299D02*
Y22362D01*
X37598Y21378D01*
Y10433D01*
G01Y3740D02*
X41614D01*
X42283Y4409D01*
Y6220D01*
G01X40630Y23858D02*
Y21889D01*
X39342Y20602D01*
Y15461D01*
X41890Y12913D01*
X42283D01*
G01X42862Y45370D02*
G01Y47339D02*
X40224Y47339D01*
X39626Y46741D01*
Y44091D01*
X38626Y43091D01*
X36626D01*
G01X42862Y49307D02*
X40224Y49307D01*
X39925Y49606D01*
X36614D01*
G01X34232Y150106D02*
X34233Y150106D01*
X34626D01*
G01X48996Y8150D02*
Y5787D01*
G01Y12874D02*
X45059D01*
X45020Y12913D01*
X42283D01*
G01Y16732D02*
X44134D01*
X44370Y16496D01*
X44409D01*
X45669Y15236D01*
X48996D01*
G01X53937Y10512D02*
Y18642D01*
G01D02*
X54567Y19272D01*
G01D02*
Y21614D01*
G01X60787Y32362D02*
Y32756D01*
X58445Y35098D01*
X55610D01*
X53839Y36870D01*
Y39993D01*
X53610Y40221D01*
Y42496D01*
G01X54094Y32362D02*
Y34776D01*
X52539Y36331D01*
Y39455D01*
X51642Y40352D01*
Y42496D01*
G01X47705Y62024D02*
Y67374D01*
G01X49673Y62024D02*
Y65130D01*
G01X53610Y62024D02*
Y64661D01*
X53610Y64662D01*
Y66169D01*
X53622Y66181D01*
Y68031D01*
G01X51654Y69685D02*
Y67835D01*
X51642Y67823D01*
Y64662D01*
X51642Y64661D01*
Y62024D01*
G01X54331Y77756D02*
G01X64134Y32441D02*
Y11890D01*
X60394Y8150D01*
X58878D01*
G01X68819Y18701D02*
Y22567D01*
X68126Y23260D01*
Y37413D01*
G01X62244Y15315D02*
X58957D01*
X58878Y15236D01*
G01X68819Y12795D02*
X70472D01*
X71102Y13425D01*
Y33547D01*
X72626Y35071D01*
Y37413D01*
G01X62283Y12795D02*
X58957D01*
X58878Y12874D01*
G01X57547Y42496D02*
Y39858D01*
X58846Y38559D01*
X61900D01*
X66457Y34002D01*
Y17224D01*
X67835Y15846D01*
Y15748D01*
G01X59516Y42496D02*
X63385D01*
X65672Y40209D01*
Y39474D01*
X67732Y37413D01*
X68126D01*
G01X55579Y42496D02*
Y38555D01*
X56496Y37638D01*
G01X70599Y41763D02*
X65955D01*
X64745Y42973D01*
Y44137D01*
X63512Y45370D01*
X62390D01*
G01Y47339D02*
X62469Y47260D01*
X65626D01*
G01X62390Y49307D02*
G01X68126Y44106D02*
G01X62390Y51276D02*
X66454Y51276D01*
X67122Y51944D01*
X67179D01*
X67994Y52760D01*
X70280D01*
G01X62390Y53244D02*
X65370D01*
X66811Y54685D01*
G01X62390Y55213D02*
X62424Y55247D01*
X64593D01*
X66648Y57126D01*
X69921D01*
G01X57547Y62024D02*
G01X59516D02*
G01X61472Y73760D02*
G01X55579Y62024D02*
Y65957D01*
G01X62390Y57181D02*
X64002D01*
X64454Y57634D01*
X64463D01*
X66203Y59374D01*
X67740D01*
G01X62390Y59150D02*
X63512D01*
X64745Y60383D01*
G01X62992Y77756D02*
G01X62626Y140106D02*
G01X68008Y140713D02*
G01Y136776D02*
G01Y138744D02*
G01X72756Y12795D02*
X75358D01*
G01D02*
X76102Y12051D01*
X78110D01*
G01X72626Y44106D02*
G01X70280Y52760D02*
G01X118756Y140437D02*
X113579Y135260D01*
X104157D01*
X96063Y127165D01*
Y92126D01*
X89547Y85610D01*
X79359D01*
X76626Y82877D01*
Y65744D01*
G01X73472Y91760D02*
X73472Y91759D01*
G01X84472Y96260D02*
G01X78744Y109776D02*
G01X88126Y108913D02*
X83626D01*
G01X84472Y100760D02*
G01X78744Y111744D02*
G01X74110Y132642D02*
G01X72142D02*
G01X78244Y138744D02*
G01Y136776D02*
G01Y140713D02*
G01X83126Y141413D02*
Y141414D01*
G01X78244Y134807D02*
G01X82732Y130914D02*
X82733Y130913D01*
X83126D01*
G01X90551Y61378D02*
Y60591D01*
X90626Y60516D01*
Y23547D01*
X99213Y14961D01*
X113543D01*
X117992Y10512D01*
G01X138441Y140437D02*
X129894Y131890D01*
X104741D01*
X99606Y126755D01*
Y72047D01*
G01X148283Y140437D02*
G54D27*
X68819Y12795D03*
Y18701D03*
X72756Y12795D03*
Y18701D03*
G54D18*
X17126Y133268D03*
Y130709D03*
Y140945D03*
Y138386D03*
Y135827D03*
G54D19*
X37598Y3740D03*
Y10433D03*
X34803Y24331D03*
Y31024D03*
X36626Y49606D03*
Y42913D03*
X36126Y124106D03*
Y117413D03*
X34626Y143413D03*
Y150106D03*
X42283Y6220D03*
Y12913D03*
X54567Y21614D03*
X49803Y30984D03*
Y37677D03*
X54567Y28307D03*
X49626Y73913D03*
Y80606D03*
X54331Y77756D03*
Y84449D03*
X56626Y125413D03*
X52626Y143413D03*
X56626Y132106D03*
X43626Y143413D03*
X52626Y150106D03*
X43626D03*
X48126Y153606D03*
Y146913D03*
X59724Y21614D03*
X68126Y37413D03*
X59724Y28307D03*
X68126Y44106D03*
X62992Y77756D03*
Y84449D03*
X67717D03*
Y77756D03*
X58661D03*
Y84449D03*
X63126Y111606D03*
Y104913D03*
X57126Y143413D03*
X62626Y140106D03*
Y133413D03*
X57126Y150106D03*
X78110Y12205D03*
Y18898D03*
X72626Y37413D03*
Y44106D03*
X83626Y108913D03*
Y115606D03*
X83126Y137606D03*
Y130913D03*
Y141413D03*
Y148106D03*
X88126Y108913D03*
Y115606D03*
X87626Y141413D03*
X92126Y137606D03*
Y130913D03*
X87626Y137606D03*
Y130913D03*
Y148106D03*
G54D28*
X67835Y15748D03*
X73740D03*
G54D29*
X68508Y109776D03*
Y111744D03*
X68008Y134807D03*
Y136776D03*
Y138744D03*
Y140713D03*
X78744Y111744D03*
Y109776D03*
X78244Y140713D03*
Y138744D03*
Y136776D03*
Y134807D03*
M02*
