G04 ================== begin FILE IDENTIFICATION RECORD ==================*
G04 Layout Name:  C:/Users/gino/Desktop/DATAHSS/datahss_project/allegro/DATAHSS.brd*
G04 Film Name:    SOLDER_MASK_TOP*
G04 File Format:  Gerber RS274X*
G04 File Origin:  Cadence Allegro 17.2-P019*
G04 Origin Date:  Mon Jan 29 10:53:14 2018*
G04 *
G04 Layer:  VIA CLASS/SOLDERMASK_TOP*
G04 Layer:  PIN/SOLDERMASK_TOP*
G04 Layer:  DRC ERROR CLASS/SOLDERMASK_TOP*
G04 *
G04 Offset:    (0.0000 0.0000)*
G04 Mirror:    No*
G04 Mode:      Positive*
G04 Rotation:  0*
G04 FullContactRelief:  No*
G04 UndefLineWidth:     0.0000*
G04 ================== end FILE IDENTIFICATION RECORD ====================*
%FSLAX25Y25*MOIN*%
%IR0*IPPOS*OFA0.00000B0.00000*MIA0B0*SFA1.00000B1.00000*%
%ADD16R,.070866X.019685*%
%ADD18R,.047244X.094488*%
%ADD12R,.062992X.062992*%
%ADD25R,.01378X.011811*%
%ADD23R,.098425X.070866*%
%ADD26R,.011811X.01378*%
%ADD27R,.023622X.009843*%
%ADD28R,.009843X.023622*%
%ADD15C,.055118*%
%ADD11R,.110236X.106299*%
%ADD10C,.059055*%
%ADD14C,.062992*%
%ADD24R,.010236X.029921*%
%ADD21R,.038976X.016535*%
%ADD22R,.016535X.038976*%
%ADD17R,.037402X.029528*%
%ADD13R,.029528X.037402*%
%ADD20R,.143701X.143701*%
%ADD19R,.035429X.015748*%
%LPD*%
G75*
G54D10*
X7874Y30669D03*
Y40669D03*
Y50669D03*
Y60669D03*
X44882Y95394D03*
Y105394D03*
X85630Y27441D03*
Y37441D03*
Y47441D03*
Y57441D03*
Y67441D03*
Y77441D03*
X107992Y10512D03*
Y119528D03*
X108913Y140437D03*
X117992Y10512D03*
X127992D03*
X118756Y140437D03*
X128598D03*
X137992Y10512D03*
X138441Y140437D03*
X147992Y10512D03*
X157992D03*
Y119528D03*
X148283Y140437D03*
G54D20*
X52626Y52260D03*
G54D11*
X5906Y120669D03*
Y150984D03*
G54D21*
X42862Y45370D03*
Y47339D03*
Y49307D03*
Y51276D03*
Y53244D03*
Y55213D03*
Y57181D03*
Y59150D03*
X62390Y55213D03*
Y53244D03*
Y51276D03*
Y49307D03*
Y47339D03*
Y45370D03*
Y59150D03*
Y57181D03*
G54D12*
X5906Y130906D03*
Y140748D03*
G54D13*
X23701Y31024D03*
X25264Y39874D03*
X25299Y53307D03*
X25264Y44307D03*
X25287Y48772D03*
X25264Y57937D03*
X39016Y31063D03*
X30394Y31024D03*
X39055Y36102D03*
X31957Y39874D03*
X31992Y53307D03*
X31957Y44307D03*
X31980Y48772D03*
X31957Y57937D03*
X54094Y32362D03*
X45709Y31063D03*
X45748Y36102D03*
X54780Y73760D03*
X52472Y118260D03*
X45780D03*
X56280D03*
X65236Y5787D03*
X60787Y32362D03*
X70280Y52760D03*
Y48260D03*
X61472Y73760D03*
X66780Y100760D03*
Y91760D03*
Y96260D03*
X69909Y120327D03*
X62972Y118260D03*
X67126Y148031D03*
Y152362D03*
X71929Y5787D03*
X76972Y52760D03*
Y48260D03*
X73472Y100760D03*
X77780D03*
X84472D03*
X77780Y96260D03*
X84472D03*
X73472Y91760D03*
Y96260D03*
X71780Y128260D03*
X78472D03*
X76602Y120327D03*
X73819Y148031D03*
Y152362D03*
G54D22*
X55579Y42496D03*
X53610D03*
X51642D03*
X49673D03*
X47705D03*
X45736D03*
Y62024D03*
X47705D03*
X49673D03*
X51642D03*
X53610D03*
X55579D03*
X59516Y42496D03*
X57547D03*
Y62024D03*
X59516D03*
G54D14*
X23228Y82520D03*
Y92520D03*
Y102520D03*
G54D23*
X46126Y129760D03*
G54D24*
X50063Y123933D03*
X48094D03*
X46126D03*
X44157D03*
X42189D03*
Y135587D03*
X44157D03*
X46126D03*
X48094D03*
X50063D03*
G54D15*
X17717Y126378D03*
Y145276D03*
G54D25*
X68819Y12795D03*
Y18701D03*
X72756Y12795D03*
Y18701D03*
G54D16*
X17126Y133268D03*
Y130709D03*
Y140945D03*
Y138386D03*
Y135827D03*
G54D17*
X37598Y3740D03*
Y10433D03*
X34803Y24331D03*
Y31024D03*
X36626Y49606D03*
Y42913D03*
X36126Y124106D03*
Y117413D03*
X34626Y143413D03*
Y150106D03*
X42283Y6220D03*
Y12913D03*
X54567Y21614D03*
X49803Y30984D03*
Y37677D03*
X54567Y28307D03*
X49626Y73913D03*
Y80606D03*
X54331Y77756D03*
Y84449D03*
X56626Y125413D03*
X52626Y143413D03*
X56626Y132106D03*
X43626Y143413D03*
X52626Y150106D03*
X43626D03*
X48126Y153606D03*
Y146913D03*
X59724Y21614D03*
X68126Y37413D03*
X59724Y28307D03*
X68126Y44106D03*
X62992Y77756D03*
Y84449D03*
X67717D03*
Y77756D03*
X58661D03*
Y84449D03*
X63126Y111606D03*
Y104913D03*
X57126Y143413D03*
X62626Y140106D03*
Y133413D03*
X57126Y150106D03*
X78110Y12205D03*
Y18898D03*
X72626Y37413D03*
Y44106D03*
X83626Y108913D03*
Y115606D03*
X83126Y137606D03*
Y130913D03*
Y141413D03*
Y148106D03*
X88126Y108913D03*
Y115606D03*
X87626Y141413D03*
X92126Y137606D03*
Y130913D03*
X87626Y137606D03*
Y130913D03*
Y148106D03*
G54D26*
X67835Y15748D03*
X73740D03*
G54D27*
X68508Y109776D03*
Y111744D03*
X68008Y134807D03*
Y136776D03*
Y138744D03*
Y140713D03*
X78744Y111744D03*
Y109776D03*
X78244Y140713D03*
Y138744D03*
Y136776D03*
Y134807D03*
G54D18*
X53937Y10512D03*
G54D19*
X48996Y5787D03*
Y8150D03*
Y10512D03*
Y12874D03*
Y15236D03*
X58878Y10512D03*
Y8150D03*
Y5787D03*
Y15236D03*
Y12874D03*
G54D28*
X76579Y105642D03*
X74610D03*
X72642D03*
X70673D03*
Y115878D03*
X72642D03*
X74610D03*
X76579D03*
X74110Y132642D03*
X72142D03*
Y142878D03*
X74110D03*
M02*
